<?xml version="1.0" standalone="no"?>
<!DOCTYPE svg PUBLIC "-//W3C//DTD SVG 1.1//EN" "http://www.w3.org/Graphics/SVG/1.1/DTD/svg11.dtd" >
<svg xmlns="http://www.w3.org/2000/svg" xmlns:xlink="http://www.w3.org/1999/xlink" version="1.1">
<metadata>
Created by FontForge 20200511 at Wed Mar 29 16:20:35 2017
 By convertio
Phitradesign 2016 \(C\) ALL RIGHTS RESERVED
</metadata>
<defs>
<font id="PrequelDemo-ShadowItalic" horiz-adv-x="731" >
  <font-face 
    font-family="Prequel Demo Shadow Italic"
    font-weight="400"
    font-style="italic"
    font-stretch="normal"
    units-per-em="1000"
    panose-1="0 0 5 0 0 0 0 0 0 0"
    ascent="800"
    descent="-200"
    x-height="920"
    cap-height="919"
    bbox="-255.552 -333 1256.54 1166"
    underline-thickness="50"
    underline-position="-100"
    unicode-range="U+0020-2265"
  />
<missing-glyph horiz-adv-x="695" 
 />
    <glyph glyph-name="o_f.liga" unicode="of" horiz-adv-x="883" 
d="M139 -50c-28 0 -50 20 -55 46c-29 5 -48 31 -46 62l6 60c4 34 29 60 61 60h66c-37 27 -60 71 -60 121c0 11 3 21 3 28l41 227c7 39 28 74 55 101c-14 8 -25 22 -29 39c-29 6 -50 35 -46 68l9 60c6 31 30 53 60 53h582c28 0 49 -19 55 -46c31 -5 50 -34 47 -69l-8 -56
c-4 -28 -26 -52 -52 -55c13 -12 21 -29 21 -48c0 -5 -1 -13 -5 -33l-6 -27c-6 -28 -33 -48 -64 -48h-42c3 -5 5 -10 6 -15c26 -6 46 -30 46 -57c0 -5 -1 -14 -5 -33l-4 -28c-9 -29 -35 -50 -64 -50h-61l-22 -125c0 -2 -1 -5 -1 -7h61c28 0 49 -19 55 -46
c30 -5 50 -35 47 -69l-8 -56c-5 -32 -31 -57 -61 -57h-582zM676 40c7 0 15 9 17 19l7 54c1 11 -4 20 -12 20h-583c-9 0 -15 -9 -16 -20l-6 -54c-2 -10 2 -19 11 -19h582zM285 193c70 0 136 58 150 130l39 218c1 5 1 13 1 22c0 60 -45 105 -106 105h-23
c-70 0 -137 -57 -148 -128l-39 -219c-1 -10 -3 -17 -3 -22c0 -60 47 -106 108 -106h21zM286 271c-25 0 -44 20 -44 45c0 3 0 6 1 9l38 218c5 28 32 50 62 51h2c26 0 45 -18 45 -42c0 -3 0 -6 -1 -9l-39 -218c-5 -29 -32 -54 -61 -54h-3zM514 200c10 0 17 8 21 16l32 184h99
c9 0 17 8 20 16l8 47v3c0 7 -8 13 -14 13h-99l18 104h130c10 0 20 6 21 15l9 46v2c0 9 -6 17 -15 17h-191c-10 0 -20 -9 -22 -19l-32 -180l-8 -48l-35 -200v-3c0 -7 7 -13 15 -13h43zM775 738c6 0 15 8 16 18l7 54c1 11 -3 20 -12 20h-582c-9 0 -15 -9 -16 -20l-8 -54
c-1 -10 4 -18 13 -18h582z" />
    <glyph glyph-name="t_h_e.liga" unicode="the" horiz-adv-x="1233" 
d="M198 -50c-31 0 -56 21 -62 47c-27 7 -46 31 -47 56l5 43c2 20 3 34 15 51c13 18 35 29 57 29h30c-9 12 -13 28 -11 45l52 294c-7 8 -11 17 -13 27c-32 8 -52 36 -45 68l11 47c4 12 11 22 21 30c-28 10 -45 37 -42 68l10 58c6 31 36 53 70 53h855c25 0 45 -12 55 -29
c4 -6 6 -12 7 -18c17 -4 30 -14 38 -27c11 -18 7 -33 5 -53l-4 -40c-3 -31 -32 -58 -65 -61c12 -12 18 -29 16 -47l-8 -50c-5 -29 -33 -52 -64 -52h-42c2 -4 3 -8 4 -12c28 -6 46 -29 46 -57l-8 -58c-4 -29 -28 -52 -57 -56c8 -8 14 -18 17 -30c28 -6 48 -32 46 -59l-10 -57
c-1 -4 -3 -8 -4 -12c3 -6 6 -12 8 -19c30 -8 49 -34 46 -66l-8 -56c-5 -32 -36 -57 -68 -57h-856zM1009 40c11 0 22 10 24 19l7 54c1 10 -5 18 -19 18h-855c-11 0 -21 -8 -25 -18l-6 -54c-4 -9 6 -19 18 -19h856zM293 196c11 0 20 8 21 18l66 371h54c10 0 20 6 21 15l9 43
c0 8 -8 15 -18 15h-192c-10 0 -21 -9 -21 -15l-10 -43c-2 -9 7 -15 18 -15h54l-65 -371c-1 -10 4 -18 14 -18h49zM483 196c8 0 18 8 20 18l33 184h124l-30 -184c-1 -10 5 -18 14 -18h49c8 0 18 8 20 18l77 425c0 10 -7 17 -17 17h-48c-11 0 -20 -7 -21 -17l-30 -161h-124
l29 161c1 10 -5 17 -15 17h-48c-11 0 -21 -7 -22 -17l-75 -425c-1 -10 6 -18 15 -18h49zM970 198c10 0 18 7 21 17l8 45c4 9 -4 18 -15 18h-129l21 118h99c9 0 19 8 20 18l6 45c4 11 -2 19 -12 19h-99l18 101h131c9 0 19 7 20 16l7 45c2 9 -6 18 -15 18h-190
c-10 0 -20 -9 -21 -18l-9 -45l-22 -136l-9 -45l-29 -154l-7 -45c-1 -10 6 -17 15 -17h191zM1090 728c11 0 24 10 25 21l6 54c4 10 -3 18 -17 18h-855c-14 0 -25 -8 -26 -18l-9 -54c-1 -11 6 -21 20 -21h856z" />
    <glyph glyph-name=".notdef" horiz-adv-x="695" 
 />
    <glyph glyph-name="space" unicode=" " horiz-adv-x="320" 
 />
    <glyph glyph-name="A" unicode="A" horiz-adv-x="729" 
d="M101 -91c-37 0 -64 21 -70 50c-32 13 -50 45 -38 81l250 810c12 40 53 69 96 69h158c38 0 69 -22 79 -54c24 -11 41 -33 44 -60l79 -811c4 -46 -35 -85 -85 -85h-106c-35 0 -61 19 -68 49c-21 8 -35 24 -40 47l-9 74h-70l-31 -107c-14 -41 -42 -63 -83 -63h-106zM171 -1
c21 0 29 9 35 27l42 143h178l17 -143c0 -18 10 -27 29 -27h106c22 0 37 14 36 32l-79 810c-2 19 -21 33 -43 33h-158c-21 0 -42 -14 -48 -33l-250 -810c-6 -18 7 -32 29 -32h106zM283 306l113 411l28 -412z" />
    <glyph glyph-name="B" unicode="B" horiz-adv-x="703" 
d="M148 -89c-38 0 -63 17 -72 50c-33 12 -49 46 -43 99l79 757c8 69 46 103 114 103l221 -1c84 0 151 -32 185 -88c20 -16 37 -36 47 -60c20 -44 27 -107 20 -177c-9 -85 -28 -147 -59 -191c41 -42 56 -118 46 -220c-20 -189 -115 -274 -300 -273zM317 271c1 0 2 0 3 1
c-1 -1 -2 -1 -3 -1zM266 130c-21 0 -21 0 -19 15l15 162c4 45 3 53 15 54c19 2 36 2 51 2c75 0 116 -21 115 -101c0 -12 0 -22 -1 -32c-11 -104 -73 -100 -132 -100h-44zM339 175c48 1 53 9 58 55v28c1 5 0 9 1 13c-10 1 -21 2 -35 2h-15c0 -3 -1 -7 -1 -11zM350 0
c129 -1 230 36 250 228c15 138 -23 196 -72 209c51 33 75 101 86 202c6 66 0 119 -16 155c-29 64 -103 80 -156 80l-221 1c-55 0 -61 -29 -64 -58l-79 -757c-3 -22 -7 -59 34 -59zM291 493c-16 0 -16 0 -14 15l20 211c2 24 2 26 12 26h10h39c78 0 107 -7 95 -124
c-10 -95 -28 -128 -118 -128h-44zM369 539c27 4 32 20 39 82c1 13 2 25 3 34h-18h-13z" />
    <glyph glyph-name="C" unicode="C" horiz-adv-x="702" 
d="M327 -99c-83 0 -156 38 -200 103c-28 23 -50 53 -64 88c-20 42 -27 93 -22 144l43 414c11 102 73 195 163 244c43 26 92 39 142 39h40c85 0 160 -39 204 -104c26 -22 47 -50 62 -82c18 -42 26 -92 21 -142c-4 -45 -45 -85 -89 -85h-85c-33 0 -61 22 -71 51
c-28 13 -47 44 -44 78l1 4v6h-5h-5c-28 0 -54 -24 -56 -52v-1l-43 -408c0 -4 0 -9 1 -13h4h5c28 0 52 25 56 58c4 45 46 82 91 82h85c34 0 61 -21 70 -51c29 -12 47 -41 43 -76l-1 -7c-10 -102 -71 -196 -161 -249h-1c-46 -27 -96 -41 -144 -41h-40zM331 -9
c42 0 82 12 121 34c74 44 127 123 136 211l1 7c2 21 -12 37 -32 37h-85c-20 0 -40 -16 -42 -37c-6 -57 -52 -103 -106 -103h-5c-50 0 -91 48 -85 103l43 408c4 55 55 98 106 98h5c55 0 91 -40 85 -96l-1 -4c-2 -20 14 -39 34 -39h85c19 0 38 19 39 39v1c5 44 -1 84 -17 120
c-33 73 -103 118 -188 118h-40c-42 0 -82 -10 -119 -32c-76 -42 -127 -120 -137 -206l-43 -414c-5 -43 1 -85 18 -122c32 -75 102 -123 187 -123h40z" />
    <glyph glyph-name="D" unicode="D" 
d="M140 -90c-32 0 -59 21 -67 50c-28 12 -46 41 -43 74l84 799c5 46 46 85 91 85h251c87 0 163 -39 209 -106c24 -20 43 -46 58 -75c23 -53 26 -124 9 -287c-7 -67 -18 -146 -28 -244c-12 -113 -77 -219 -162 -260c-47 -23 -96 -35 -140 -35zM367 1c41 0 81 12 118 30
c77 37 125 135 134 220c10 98 21 178 28 244c14 136 17 214 -6 264c-34 70 -105 114 -190 114h-251c-20 0 -39 -19 -41 -40l-84 -799c-2 -17 11 -34 29 -34zM247 147c-7 0 -10 3 -9 10l58 552c1 9 10 18 20 18h105c52 0 89 -43 84 -94l-40 -381c-6 -57 -60 -105 -116 -105
h-102zM354 192c32 0 63 28 66 60l40 381v4h-4h-78l-46 -445h22z" />
    <glyph glyph-name="E" unicode="E" horiz-adv-x="636" 
d="M141 -87c-34 0 -61 21 -69 50c-29 11 -46 39 -42 73l85 808c5 44 42 77 87 77h368c34 0 61 -20 69 -50c29 -11 46 -39 42 -72l-9 -86c-5 -44 -43 -79 -87 -79h-207l-11 -107h101c34 0 58 -20 65 -49c29 -11 46 -38 43 -73l-9 -87c-5 -44 -40 -76 -84 -76h-146l-5 -42h162
c34 0 61 -21 69 -50c28 -12 46 -39 42 -72l-9 -87c-4 -43 -43 -78 -87 -78h-368zM473 3c19 0 36 15 38 33l9 87c2 18 -12 32 -31 32h-252l19 177h191c19 0 32 12 34 31l9 87c2 19 -8 32 -27 32h-191l25 242h252c19 0 36 15 38 34l9 86c2 19 -12 32 -31 32h-368
c-20 0 -35 -13 -37 -32l-85 -808c-2 -18 10 -33 30 -33h368z" />
    <glyph glyph-name="F" unicode="F" horiz-adv-x="651" 
d="M142 -86c-36 0 -63 20 -70 50c-28 11 -45 38 -42 71l85 806c4 42 43 75 88 75h370c36 0 63 -21 71 -51c28 -11 45 -37 42 -69l-9 -88c-5 -43 -45 -78 -89 -78h-209l-12 -108h104c35 0 60 -20 68 -50c28 -10 45 -37 42 -71l-10 -88c-4 -42 -40 -74 -84 -74h-149l-27 -249
c-4 -42 -44 -76 -87 -76h-82zM189 4c19 0 35 15 37 31l31 294h194c20 0 33 13 35 29l9 88c2 18 -8 31 -28 31h-194l25 243h254c20 0 38 16 40 33l9 88c2 17 -12 30 -33 30h-370c-20 0 -36 -13 -38 -30l-85 -806c-2 -19 12 -31 32 -31h82z" />
    <glyph glyph-name="G" unicode="G" horiz-adv-x="723" 
d="M696 189c-35 -335 -487 -400 -625 -103v1c-21 45 -28 95 -23 146l44 415c10 103 72 195 166 247h1c44 24 95 37 145 37h39c161 1 292 -116 276 -272c-12 -91 -133 -78 -216 -74c-75 6 -21 79 -83 79c-36 0 -65 -23 -68 -54l-15 -152c4 14 -3 101 92 102l165 -1v0
c85 0 129 -47 127 -139zM425 316c-74 -8 -115 10 -88 143l-25 -247c-1 -3 -1 -6 0 -10c51 -23 102 9 105 41zM638 487c1 16 -10 31 -27 31h-195c-16 0 -33 -15 -34 -31l-10 -93c-1 -13 10 -26 23 -26h80l-13 -129c-8 -70 -68 -102 -122 -102h-4c-55 0 -96 47 -90 102l43 412
c6 55 55 96 110 96h5c54 0 93 -13 95 -76c0 -14 11 -22 26 -22h107c13 0 23 10 24 22c4 46 -5 86 -24 118c-39 65 -113 99 -192 98h-40c-43 0 -84 -10 -124 -31c-77 -43 -130 -119 -139 -208l-44 -415c-5 -45 2 -86 19 -124c36 -76 108 -124 195 -124h40c43 0 84 12 123 34
c77 45 132 125 141 215z" />
    <glyph glyph-name="H" unicode="H" horiz-adv-x="785" 
d="M139 -90c-32 0 -58 21 -66 50c-28 11 -46 41 -43 74l85 807c4 41 44 78 85 78h93c33 0 60 -21 68 -50c28 -11 46 -39 42 -73l-28 -267l102 1l33 311c4 43 45 78 88 78h90c33 0 61 -22 70 -51c26 -12 45 -40 42 -72l-85 -807c-4 -43 -45 -79 -88 -79h-90
c-34 0 -61 21 -70 51c-28 11 -45 40 -42 73l22 208l-102 -1l-27 -252c-4 -44 -43 -79 -86 -79h-93zM196 0c18 0 35 15 37 34l31 297l237 1l-31 -298c-2 -19 12 -34 31 -34h90c18 0 37 15 39 34l85 807c2 17 -14 33 -32 33h-90c-19 0 -36 -16 -38 -33l-38 -356l-237 -1
l38 357c2 19 -12 33 -30 33h-93c-16 0 -33 -16 -35 -33l-85 -807c-2 -19 12 -34 28 -34h93z" />
    <glyph glyph-name="I" unicode="I" horiz-adv-x="387" 
d="M140 -93c-33 0 -59 21 -68 50c-28 11 -46 41 -42 74l85 809c5 44 42 79 86 79h92c32 0 58 -21 67 -50c28 -11 46 -40 42 -74l-85 -809c-4 -42 -43 -79 -85 -79h-92zM196 -3c17 0 34 16 36 34l85 809c2 19 -12 34 -29 34h-92c-19 0 -34 -15 -36 -34l-85 -809
c-2 -18 10 -34 29 -34h92z" />
    <glyph glyph-name="J" unicode="J" horiz-adv-x="637" 
d="M298 -118c-97 0 -175 40 -219 105c-56 48 -85 120 -76 204c4 44 46 81 91 81h80c34 0 55 -17 66 -49c23 -8 37 -28 43 -58c27 1 35 10 37 32l69 653c4 42 44 75 88 75h77c33 0 59 -22 67 -51c28 -11 46 -38 43 -69l-69 -659c-16 -156 -140 -264 -297 -264zM263 -28
c113 0 231 70 247 219l69 659c2 16 -14 30 -30 30h-77c-20 0 -36 -14 -38 -30l-69 -653c-6 -59 -48 -77 -92 -77c-48 0 -69 32 -74 69c-2 24 -9 38 -30 38h-80c-17 0 -39 -14 -41 -36c-15 -143 97 -219 215 -219z" />
    <glyph glyph-name="K" unicode="K" horiz-adv-x="686" 
d="M137 -90c-32 0 -58 21 -66 50c-27 10 -45 38 -42 68l86 816c4 41 42 76 83 76h91c30 0 55 -21 63 -49c24 -9 40 -33 43 -59l36 62c18 29 49 46 81 46h95c39 0 68 -20 75 -51c29 -11 45 -37 41 -69c-1 -12 -5 -25 -12 -37l-212 -330l171 -407c5 -13 7 -28 6 -42
c-5 -43 -43 -74 -91 -74h-101c-30 0 -59 21 -71 51l-1 1c-17 9 -32 25 -39 44l-50 126l-14 -149c-5 -39 -43 -73 -81 -73h-91zM192 0c14 0 30 14 31 28l24 234l48 74l120 -310c6 -14 19 -26 33 -26h101c23 0 40 11 41 29c1 8 0 17 -5 27l-177 422l221 345c6 8 8 15 9 22
c2 18 -13 30 -36 30h-95c-14 0 -30 -7 -40 -26l-191 -324l33 319c2 15 -11 31 -25 31h-91c-16 0 -31 -15 -33 -31l-86 -816c-1 -14 11 -28 27 -28h91z" />
    <glyph glyph-name="L" unicode="L" horiz-adv-x="566" 
d="M137 -90c-32 0 -58 21 -65 49c-28 11 -46 39 -43 71l86 818c5 42 43 77 84 77h92c33 0 59 -21 67 -50c28 -11 46 -39 43 -72l-63 -605l100 1c35 0 59 -19 66 -49c29 -10 45 -36 41 -71l-9 -94c-5 -42 -40 -75 -83 -75h-316zM417 0c19 0 32 14 33 30l10 94
c2 19 -8 30 -27 30l-190 -1l72 695c2 18 -11 32 -28 32h-92c-16 0 -33 -14 -35 -32l-86 -818c-1 -16 10 -30 27 -30h316z" />
    <glyph glyph-name="M" unicode="M" horiz-adv-x="955" 
d="M144 -90c-33 0 -62 22 -71 52c-27 12 -46 41 -43 72l85 808c4 43 45 77 90 77h156c20 0 84 2 103 -56c22 -10 41 -28 45 -65l11 -140l55 186c31 85 108 75 123 75h160c36 0 63 -20 70 -50c29 -11 46 -38 42 -72l-85 -808c-4 -45 -42 -79 -88 -79h-88c-36 0 -63 20 -71 51
c-11 4 -21 11 -28 19v-1c-14 -42 -49 -66 -96 -69h-90c-39 3 -67 23 -77 54c-12 6 -21 13 -28 22c-4 -41 -43 -76 -84 -76h-91zM199 0c17 0 33 16 35 32l52 624l62 -617c1 -25 20 -37 42 -39h86c25 2 42 10 51 34l195 622l-82 -618c-2 -20 7 -38 33 -38h88c21 0 37 14 39 34
l85 808c2 19 -11 32 -32 32h-160c-18 0 -58 5 -75 -40l-155 -522l-39 522c-6 41 -45 40 -68 40h-156c-19 0 -38 -13 -40 -32l-85 -808c-2 -16 14 -34 33 -34h91z" />
    <glyph glyph-name="N" unicode="N" horiz-adv-x="788" 
d="M530 -90c-43 0 -83 24 -95 58c-20 11 -35 28 -41 49v0l-53 202l-20 -228v-1c-5 -45 -42 -79 -87 -79h-92c-34 0 -61 21 -70 51c-28 11 -46 40 -42 73l85 809c5 44 44 79 88 79h118c54 0 81 -14 98 -55c21 -9 34 -26 44 -53l35 -149l15 177v1c5 44 42 79 86 79h95
c32 0 61 -22 69 -51c26 -11 44 -37 41 -64l-85 -809c-5 -50 -41 -88 -86 -88zM597 1c19 0 34 17 37 43l85 809c1 10 -13 25 -29 25h-95c-19 0 -35 -15 -37 -34l-47 -558l-132 557c-13 32 -28 35 -62 35h-118c-19 0 -37 -15 -39 -34l-85 -809c-2 -19 12 -34 31 -34h92
c20 0 36 15 38 34l50 578l152 -580c6 -23 37 -33 56 -33z" />
    <glyph glyph-name="O" unicode="O" 
d="M337 -99c-92 0 -168 41 -212 106c-62 52 -94 134 -84 229l43 412c17 160 155 285 315 285h41c92 0 168 -41 212 -106c60 -51 92 -131 83 -223l-43 -413c-16 -157 -160 -290 -313 -290h-42zM343 -9c126 0 250 111 264 245l42 413c15 137 -80 239 -213 239h-41
c-135 0 -251 -104 -266 -240l-43 -412c-15 -144 83 -245 215 -245h42zM332 139c-55 0 -95 47 -89 102l42 409c6 55 56 96 111 96h4c55 0 94 -41 88 -96l-42 -409c-6 -55 -55 -102 -109 -102h-5zM342 184c28 0 55 26 59 57l42 409c1 2 1 4 1 5c-3 1 -6 1 -9 1h-4
c-31 0 -57 -22 -60 -51l-43 -409c-1 -4 -1 -8 0 -11c3 -1 6 -1 9 -1h5z" />
    <glyph glyph-name="P" unicode="P" horiz-adv-x="685" 
d="M143 -89c-37 0 -64 20 -72 50c-28 11 -45 38 -41 72l85 808c5 46 42 80 89 80h244c92 0 155 -29 188 -85c55 -41 77 -113 65 -216l-25 -236c-15 -137 -129 -240 -265 -240l-65 1l-17 -157c-5 -44 -45 -77 -90 -77h-96zM203 1c20 0 39 13 41 32l21 202l111 -1
c109 0 202 80 214 195l26 236c15 134 -29 211 -173 211h-244c-23 0 -37 -15 -39 -35l-85 -808c-2 -19 9 -32 32 -32h96zM372 430c14 0 27 11 28 26l21 198l-29 1l-24 -225h4zM312 745l93 -1c40 0 67 -29 63 -69l-23 -219c-4 -39 -38 -71 -77 -71h-94z" />
    <glyph glyph-name="Q" unicode="Q" 
d="M437 -264c-23 0 -45 10 -59 27l-24 31c-5 3 -11 8 -16 14l-82 105c-6 0 -13 1 -20 3c-43 16 -79 45 -104 82c-61 52 -93 137 -83 235l44 412c17 160 155 285 315 285h41c92 0 167 -41 212 -106c59 -51 92 -131 82 -223l-42 -413c-10 -92 -64 -178 -142 -233l24 -31
c9 -16 14 -35 12 -54c-2 -26 -17 -51 -38 -66l-66 -50c-16 -11 -36 -18 -54 -18zM402 -174c9 0 18 3 27 10l64 48c10 7 16 19 17 31c1 11 -2 22 -10 31l-48 65c85 39 153 124 163 222l43 413c14 137 -81 239 -214 239h-41c-135 0 -251 -104 -265 -240l-44 -412
c-12 -123 50 -223 159 -239h-1l120 -153c7 -10 19 -15 30 -15zM340 136c-55 0 -95 47 -89 102l43 409c6 55 55 96 110 96h4c55 0 95 -41 89 -96l-43 -409c-6 -55 -55 -102 -109 -102h-5zM350 181c28 0 56 26 59 57l43 409c0 2 0 4 1 5c-3 1 -6 1 -9 1h-4
c-31 0 -58 -22 -61 -51l-43 -409c0 -4 -1 -8 0 -11c3 -1 6 -1 9 -1h5z" />
    <glyph glyph-name="R" unicode="R" horiz-adv-x="696" 
d="M143 -90c-37 0 -64 20 -72 50c-28 11 -45 38 -41 72l85 808c5 46 42 80 89 80h244c92 0 155 -29 188 -85c55 -41 77 -113 65 -216l-25 -236c-7 -65 -36 -124 -83 -167l51 -212c2 -8 2 -16 1 -23c-4 -39 -38 -71 -77 -71h-105c-37 0 -67 21 -79 53c-20 11 -36 30 -42 55
l-6 33l-7 -64c-5 -44 -45 -77 -90 -77h-96zM203 0c20 0 39 13 41 32l21 202l84 -1l36 -196c3 -22 20 -37 42 -37h105c14 0 27 12 28 26c0 3 0 6 -1 9l-57 239c48 34 81 88 88 154l26 236c15 134 -29 211 -173 211h-244c-23 0 -37 -15 -39 -35l-85 -808c-2 -19 9 -32 32 -32
h96zM372 429c14 0 27 11 28 26l21 198l-29 1l-24 -225h4zM312 744l93 -1c40 0 67 -29 63 -69l-23 -219c-4 -39 -38 -71 -77 -71h-94z" />
    <glyph glyph-name="S" unicode="S" horiz-adv-x="695" 
d="M341 -106c-180 0 -328 150 -309 314l1 2c6 56 42 86 95 84c27 0 65 -1 72 -1c40 0 70 -21 81 -53c-3 -30 45 -39 44 -73c31 0 51 20 55 56c1 5 0 10 0 19c0 4 0 8 -1 12c-10 4 -24 7 -42 11c-90 21 -145 62 -177 110c-93 79 -87 197 -83 256c13 182 146 302 333 302
c92 0 166 -40 210 -104c58 -49 88 -126 79 -215v-2c-6 -44 -42 -79 -85 -80h-93c-75 1 -110 80 -107 119l1 8c-34 -1 -55 -24 -59 -68c-2 -12 -2 -17 -2 -22c1 -5 2 -10 3 -14c10 -4 25 -9 43 -13c95 -24 157 -60 193 -114c56 -47 79 -114 76 -209c-1 -12 -2 -23 -3 -32
c-19 -180 -144 -293 -325 -293zM306 -16c150 0 258 87 275 248c1 9 2 18 2 28c6 151 -65 204 -199 238c-81 21 -107 46 -115 107c-1 11 0 21 1 31c8 70 51 113 112 113c7 0 16 -1 24 -2c42 -9 58 -45 54 -82l-1 -9c-3 -19 9 -33 28 -34h87c19 -1 36 14 40 36v1
c14 134 -79 229 -209 229c-157 0 -271 -95 -283 -256c-5 -78 -12 -232 190 -278c73 -16 111 -38 114 -106c0 -9 0 -17 -1 -25c-7 -70 -58 -101 -105 -101c-44 0 -85 29 -80 78c3 31 -15 48 -44 48c-8 0 -46 1 -73 1c-21 1 -40 -2 -45 -40l-1 -1c-16 -149 96 -224 229 -224z
" />
    <glyph glyph-name="T" unicode="T" horiz-adv-x="597" 
d="M246 -90c-32 0 -58 21 -66 50c-28 11 -47 41 -43 74l64 609h-31c-37 0 -65 20 -72 51c-28 10 -45 36 -41 69l8 80c5 44 43 78 89 78h393c38 0 65 -20 73 -50c29 -11 45 -38 41 -73l-8 -80c-5 -44 -43 -75 -90 -75h-70l-69 -654c-4 -43 -42 -79 -85 -79h-93zM303 0
c18 0 34 15 36 34l73 699h115c20 0 38 10 41 30l8 80c2 24 -14 33 -34 33h-393c-21 0 -37 -14 -39 -33l-8 -80c-2 -19 11 -30 32 -30h121l-73 -699c-2 -19 12 -34 28 -34h93z" />
    <glyph glyph-name="U" unicode="U" horiz-adv-x="750" 
d="M344 -93c-89 0 -167 40 -215 108c-24 23 -46 50 -61 82c-22 43 -30 95 -25 146l60 576c7 66 45 101 111 101h45c43 0 55 -3 71 -19c10 -7 15 -18 19 -31c9 -2 14 -7 22 -14c19 -15 24 -41 20 -81l-58 -570c0 -4 -1 -8 0 -11c2 -1 5 -1 7 -1h20c30 0 56 25 60 57l61 570
c7 65 45 100 110 100h49c50 0 80 -17 90 -53c34 -13 48 -44 43 -93l-63 -576c-10 -103 -75 -198 -171 -251c-48 -26 -101 -40 -150 -40h-45zM353 -3c44 0 86 12 127 34c79 44 136 123 145 212l63 576c4 46 -11 56 -52 56h-49c-35 0 -57 -10 -61 -55l-61 -570
c-6 -56 -55 -102 -110 -102h-20c-53 0 -93 46 -87 102l58 570c2 25 1 40 -7 46c-9 9 -10 9 -44 9h-45c-36 0 -58 -11 -62 -56l-60 -576c-5 -44 2 -85 21 -123c35 -75 109 -123 199 -123h45z" />
    <glyph glyph-name="V" unicode="V" horiz-adv-x="729" 
d="M278 -90c-38 0 -70 22 -80 54c-24 12 -42 34 -44 60l-78 810c-5 46 34 86 84 86h106c31 0 53 -18 63 -49c22 -7 38 -28 43 -57l23 -265l89 308c14 41 42 63 83 63h107c36 0 63 -21 69 -50c33 -12 50 -45 38 -81l-250 -810c-12 -40 -53 -69 -96 -69h-157zM399 0
c21 0 43 14 49 33l250 810c6 18 -8 32 -29 32h-107c-21 0 -29 -9 -34 -27l-184 -637l-56 622c0 28 -11 42 -27 42h-106c-21 0 -36 -14 -34 -32l78 -810c2 -19 21 -33 43 -33h157z" />
    <glyph glyph-name="W" unicode="W" horiz-adv-x="969" 
d="M254 -90c-34 0 -64 22 -73 52c-22 10 -38 30 -42 54l-63 824c-2 42 36 80 82 80h90c34 0 63 -21 73 -52c23 -11 40 -33 43 -61l4 -78l26 110c13 51 52 81 105 81h76c43 0 71 -18 82 -53c26 -11 42 -34 44 -68l5 -80l31 129c11 42 50 72 90 72h90c32 0 60 -22 67 -50
c29 -12 48 -41 40 -71l-215 -810c-12 -47 -49 -79 -92 -79h-125c-34 0 -63 21 -73 52c-20 9 -36 27 -41 49l-7 -23c-14 -46 -51 -78 -93 -78h-124zM342 0c20 0 38 16 46 41l109 416l24 -426c2 -16 16 -31 35 -31h125c20 0 38 16 45 41l214 809c2 10 -12 25 -28 25h-90
c-19 0 -36 -15 -42 -34l-133 -569l-31 564c-2 26 -15 39 -46 39h-76c-27 0 -48 -10 -56 -42l-131 -561l-28 572c-2 16 -17 31 -36 31h-90c-19 0 -34 -15 -32 -31l63 -813c-1 -16 16 -31 34 -31h124z" />
    <glyph glyph-name="X" unicode="X" horiz-adv-x="713" 
d="M140 -90c-20 0 -94 -9 -101 49c-24 7 -44 24 -40 65c1 11 6 25 13 38c2 7 13 38 201 392l-110 357c-4 14 -5 26 -4 36c6 50 45 73 118 73h67c43 0 71 -17 83 -53c23 -9 37 -28 44 -55l1 -9l24 54c21 43 51 63 99 63h66c36 0 96 0 102 -51c25 -8 44 -25 40 -64
c-2 -16 -10 -39 -24 -64v0l-183 -332c116 -353 126 -374 131 -392c5 -16 6 -30 5 -42c-8 -71 -79 -65 -123 -65h-61c-39 0 -69 19 -83 54c-19 10 -35 27 -42 51v0l-15 46l-47 -96c-23 -34 -59 -55 -97 -55h-64zM168 0c24 0 43 14 53 29l113 227l72 -223c7 -20 20 -33 46 -33
h61c46 0 71 -2 74 20c0 7 -1 15 -4 26c-4 15 -16 40 -136 408l193 350c11 21 17 36 18 46c2 25 -22 25 -62 25h-66c-20 0 -38 -1 -52 -33l-100 -217l-52 217c-7 30 -26 33 -47 33h-67c-43 0 -65 -5 -68 -28c-1 -10 3 -24 10 -43l108 -350c-203 -381 -202 -389 -210 -407
c-5 -9 -7 -17 -8 -23c-3 -29 35 -24 60 -24h64z" />
    <glyph glyph-name="Y" unicode="Y" horiz-adv-x="658" 
d="M276 -95c-35 0 -64 21 -73 52c-28 12 -46 40 -42 72l37 352c-1 8 -2 15 -3 22l-113 405c-4 16 -6 33 -5 47c5 45 38 68 98 68h77c40 0 68 -18 78 -52c22 -8 36 -25 43 -51c2 -10 7 -28 11 -52l42 97c16 37 47 58 86 58h79c49 0 78 -18 82 -51c31 -10 45 -32 41 -66
c-1 -13 -6 -29 -12 -42v-1l-187 -380c-9 -15 -13 -30 -17 -45l-37 -354c-5 -44 -47 -79 -93 -79h-92zM332 -5c21 0 42 15 44 34l37 356c4 20 11 40 21 60l187 379c5 11 7 20 8 27c3 25 -18 27 -42 27h-79c-16 0 -31 -5 -40 -27l-117 -270c0 1 0 0 -63 270
c-6 23 -21 27 -40 27h-77c-30 0 -47 -4 -49 -23c0 -8 0 -18 4 -31l105 -379c7 -20 11 -40 12 -60l-37 -356c-2 -19 14 -34 34 -34h92z" />
    <glyph glyph-name="Z" unicode="Z" horiz-adv-x="663" 
d="M134 -91c-47 0 -78 20 -87 54c-31 13 -47 40 -43 78c2 18 9 38 19 60v1l275 531l-91 1c-32 0 -59 22 -69 51c-27 12 -46 43 -43 76l9 83c6 42 45 76 88 76h388c33 0 59 -20 69 -51c31 -13 50 -48 45 -91c-1 -13 -5 -26 -12 -41l-267 -537h108c34 0 57 -18 64 -49
c29 -9 45 -37 43 -76v-1l-6 -74c-5 -50 -44 -92 -87 -92zM501 -2c17 0 35 21 38 46l6 74c2 25 -7 37 -27 37h-237l7 14l313 628c4 9 7 17 8 26c3 28 -10 52 -34 52h-388c-19 0 -37 -15 -38 -35l-9 -79c-1 -18 13 -37 32 -37l219 -2l-5 -13l-323 -624c-8 -18 -13 -32 -14 -44
c-4 -35 24 -42 49 -42z" />
    <glyph glyph-name="a" unicode="a" horiz-adv-x="729" 
d="M-7 36l250 814c12 40 53 69 96 69h158c46 0 114 -25 123 -114l79 -811c4 -46 -35 -83 -85 -84c-174 -3 -207 4 -214 95l-9 74h-70l-31 -107c-14 -41 -40 -56 -83 -59c-150 -12 -253 -5 -214 123zM171 -1c21 0 29 9 35 27l42 143h178l17 -143c0 -18 10 -27 29 -27h106
c22 0 37 14 36 32l-79 810c-2 19 -21 33 -43 33h-158c-21 0 -42 -14 -48 -33l-250 -810c-6 -18 7 -32 29 -32h106zM283 306l113 411l28 -412z" />
    <glyph glyph-name="b" unicode="b" horiz-adv-x="703" 
d="M167 -89c-122 1 -141 82 -134 149l79 757c8 69 46 103 114 103l221 -1c100 0 200 -44 232 -148c14 -47 27 -107 20 -177c-9 -85 -28 -147 -59 -191c41 -42 56 -118 46 -220c-20 -189 -115 -274 -300 -273zM317 271c1 0 2 0 3 1c-1 -1 -2 -1 -3 -1zM266 130
c-21 0 -21 0 -19 15l15 162c4 45 3 53 15 54c19 2 36 2 51 2c75 0 116 -21 115 -101c0 -12 0 -22 -1 -32c-11 -104 -73 -100 -132 -100h-44zM339 175c48 1 53 9 58 55v28c1 5 0 9 1 13c-10 1 -21 2 -35 2h-15c0 -3 -1 -7 -1 -11zM350 0c129 -1 230 36 250 228
c15 138 -23 196 -72 209c51 33 75 101 86 202c6 66 0 119 -16 155c-29 64 -103 80 -156 80l-221 1c-55 0 -61 -29 -64 -58l-79 -757c-3 -22 -7 -59 34 -59zM291 493c-16 0 -16 0 -14 15l20 211c2 24 2 26 12 26h10h39c78 0 107 -7 95 -124c-10 -95 -28 -128 -118 -128h-44z
M369 539c27 4 32 20 39 82c5 48 7 64 -12 64h-13z" />
    <glyph glyph-name="c" unicode="c" horiz-adv-x="702" 
d="M327 -99c-172 0 -309 119 -286 335l43 414c11 102 73 195 163 244c43 26 92 39 142 39h40c112 0 230 -77 266 -186c14 -44 26 -92 21 -142c-4 -45 -45 -85 -89 -85h-85c-110 0 -120 82 -115 129l1 4v6h-5h-5c-28 0 -54 -24 -56 -52v-1l-43 -408c0 -4 0 -9 1 -13h4h5
c28 0 52 25 56 58c4 45 46 82 91 82h85c44 0 121 -53 113 -127l-1 -7c-19 -181 -156 -290 -346 -290zM331 -9c42 0 82 12 121 34c74 44 127 123 136 211l1 7c2 21 -12 37 -32 37h-85c-20 0 -40 -16 -42 -37c-6 -57 -52 -103 -106 -103h-5c-50 0 -91 48 -85 103l43 408
c4 55 55 98 106 98h5c55 0 91 -40 85 -96l-1 -4c-2 -20 14 -39 34 -39h85c19 0 38 19 39 39v1c5 44 -1 84 -17 120c-33 73 -103 118 -188 118h-40c-42 0 -82 -10 -119 -32c-76 -42 -127 -120 -137 -206l-43 -414c-5 -43 1 -85 18 -122c32 -75 102 -123 187 -123h40z" />
    <glyph glyph-name="d" unicode="d" 
d="M170 -90c-99 0 -144 81 -140 124l84 799c5 46 46 85 91 85h251c237 0 305 -191 276 -468c-7 -67 -18 -146 -28 -244c-12 -113 -77 -219 -162 -260c-47 -23 -96 -35 -140 -35zM367 1c41 0 81 12 118 30c77 37 125 135 134 220c10 98 21 178 28 244c14 136 17 214 -6 264
c-34 70 -105 114 -190 114h-251c-20 0 -39 -19 -41 -40l-84 -799c-2 -17 11 -34 29 -34zM247 147c-7 0 -10 3 -9 10l58 552c1 9 10 18 20 18h105c52 0 89 -43 84 -94l-40 -381c-6 -57 -60 -105 -116 -105h-102zM354 192c32 0 63 28 66 60l40 381v4h-4h-78l-46 -445h22z" />
    <glyph glyph-name="e" unicode="e" horiz-adv-x="636" 
d="M141 -87c-65 0 -116 78 -111 123l85 808c5 44 42 77 87 77h368c44 0 118 -58 111 -122l-9 -86c-5 -44 -43 -79 -87 -79h-207l-11 -107h101c42 0 117 -37 108 -122l-9 -87c-5 -44 -40 -76 -84 -76h-146l-5 -42h162c44 0 121 -32 111 -122l-9 -87c-4 -43 -43 -78 -87 -78
h-368zM473 3c19 0 36 15 38 33l9 87c2 18 -12 32 -31 32h-252l19 177h191c19 0 32 12 34 31l9 87c2 19 -8 32 -27 32h-191l25 242h252c19 0 36 15 38 34l9 86c2 19 -12 32 -31 32h-368c-20 0 -35 -13 -37 -32l-85 -808c-2 -18 10 -33 30 -33h368z" />
    <glyph glyph-name="f" unicode="f" horiz-adv-x="651" 
d="M142 -86c-77 0 -116 80 -112 121l85 806c4 42 43 75 88 75h370c89 0 117 -81 113 -120l-9 -88c-5 -43 -45 -78 -89 -78h-209l-12 -108h104c78 0 114 -79 110 -121l-10 -88c-4 -42 -40 -74 -84 -74h-149l-27 -249c-4 -42 -44 -76 -87 -76h-82zM189 4c19 0 35 15 37 31
l31 294h194c20 0 33 13 35 29l9 88c2 18 -8 31 -28 31h-194l25 243h254c20 0 38 16 40 33l9 88c2 17 -12 30 -33 30h-370c-20 0 -36 -13 -38 -30l-85 -806c-2 -19 12 -31 32 -31h82z" />
    <glyph glyph-name="g" unicode="g" horiz-adv-x="723" 
d="M696 189c-35 -335 -487 -400 -625 -103v1c-21 45 -28 95 -23 146l44 415c10 103 72 195 166 247h1c44 24 95 37 145 37h39c161 1 292 -116 276 -272c-12 -91 -133 -78 -216 -74c-75 6 -21 79 -83 79c-36 0 -65 -23 -68 -54l-15 -152c4 14 -3 101 92 102l165 -1v0
c85 0 129 -47 127 -139zM425 316c-74 -8 -115 10 -88 143l-25 -247c-1 -3 -1 -6 0 -10c51 -23 102 9 105 41zM638 487c1 16 -10 31 -27 31h-195c-16 0 -33 -15 -34 -31l-10 -93c-1 -13 10 -26 23 -26h80l-13 -129c-8 -70 -68 -102 -122 -102h-4c-55 0 -96 47 -90 102l43 412
c6 55 55 96 110 96h5c54 0 93 -13 95 -76c0 -14 11 -22 26 -22h107c13 0 23 10 24 22c4 46 -5 86 -24 118c-39 65 -113 99 -192 98h-40c-43 0 -84 -10 -124 -31c-77 -43 -130 -119 -139 -208l-44 -415c-5 -45 2 -86 19 -124c36 -76 108 -124 195 -124h40c43 0 84 12 123 34
c77 45 132 125 141 215z" />
    <glyph glyph-name="h" unicode="h" horiz-adv-x="785" 
d="M232 -90c43 0 82 35 86 79l27 252l102 1l-22 -208c-8 -74 32 -124 112 -124h90c43 0 84 36 88 79l85 807c8 79 -69 123 -112 123h-90c-43 0 -84 -35 -88 -78l-33 -311l-102 -1l28 267c10 96 -68 123 -110 123h-93c-41 0 -81 -37 -85 -78l-85 -807
c-5 -43 25 -124 109 -124h93zM103 0c-16 0 -30 15 -28 34l85 807c2 17 19 33 35 33h93c18 0 32 -14 30 -33l-38 -357l237 1l38 356c2 17 19 33 38 33h90c18 0 34 -16 32 -33l-85 -807c-2 -19 -21 -34 -39 -34h-90c-19 0 -33 15 -31 34l31 298l-237 -1l-31 -297
c-2 -19 -19 -34 -37 -34h-93z" />
    <glyph glyph-name="i" unicode="i" horiz-adv-x="387" 
d="M140 -93c-42 0 -118 51 -110 124l85 809c5 44 42 79 86 79h92c40 0 118 -44 109 -124l-85 -809c-4 -42 -43 -79 -85 -79h-92zM196 -3c17 0 34 16 36 34l85 809c2 19 -12 34 -29 34h-92c-19 0 -34 -15 -36 -34l-85 -809c-2 -18 10 -34 29 -34h92z" />
    <glyph glyph-name="j" unicode="j" horiz-adv-x="637" 
d="M298 -118c-168 0 -312 154 -295 309c4 44 46 81 91 81h80c40 0 81 -8 83 -102c46 -13 61 5 63 27l69 653c4 42 44 75 88 75h77c41 0 119 -33 110 -120l-69 -659c-16 -156 -140 -264 -297 -264zM263 -28c113 0 231 70 247 219l69 659c2 16 -14 30 -30 30h-77
c-20 0 -36 -14 -38 -30l-69 -653c-6 -59 -48 -77 -92 -77c-48 0 -69 32 -74 69c-2 24 -9 38 -30 38h-80c-17 0 -39 -14 -41 -36c-15 -143 97 -219 215 -219z" />
    <glyph glyph-name="k" unicode="k" horiz-adv-x="686" 
d="M137 -90c-77 0 -112 80 -108 118l86 816c4 41 42 76 83 76h91c71 0 80 -34 83 -137l59 91c18 29 49 46 81 46h95c52 0 114 -22 116 -120c1 -12 -5 -25 -12 -37l-212 -330l171 -407c5 -13 7 -28 6 -42c-5 -43 -43 -74 -91 -74h-101c-71 0 -101 70 -111 96l-50 126
l-14 -149c-5 -39 -43 -73 -81 -73h-91zM192 0c14 0 30 14 31 28l24 234l48 74l120 -310c6 -14 19 -26 33 -26h101c23 0 40 11 41 29c1 8 0 17 -5 27l-177 422l221 345c6 8 8 15 9 22c2 18 -13 30 -36 30h-95c-14 0 -30 -7 -40 -26l-191 -324l33 319c2 15 -11 31 -25 31h-91
c-16 0 -31 -15 -33 -31l-86 -816c-1 -14 11 -28 27 -28h91z" />
    <glyph glyph-name="l" unicode="l" horiz-adv-x="566" 
d="M137 -90c-88 0 -112 80 -108 120l86 818c5 42 43 77 84 77h92c42 0 119 -33 110 -122l-63 -605l100 1c43 0 116 -35 107 -120l-9 -94c-5 -42 -40 -75 -83 -75h-316zM417 0c19 0 32 14 33 30l10 94c2 19 -8 30 -27 30l-190 -1l72 695c2 18 -11 32 -28 32h-92
c-16 0 -33 -14 -35 -32l-86 -818c-1 -16 10 -30 27 -30h316z" />
    <glyph glyph-name="m" unicode="m" horiz-adv-x="955" 
d="M144 -90c-90 0 -118 85 -114 124l85 808c4 43 45 77 90 77h156c65 0 140 -42 148 -121l11 -140l55 186c31 85 108 75 123 75h160c48 0 123 -17 112 -122l-85 -808c-4 -45 -42 -79 -88 -79h-88c-35 0 -83 20 -99 70v0c-23 -69 -55 -67 -186 -70c-36 3 -82 31 -105 76
c-4 -41 -43 -76 -84 -76h-91zM199 0c17 0 33 16 35 32l52 624l62 -617c1 -25 20 -37 42 -39h86c25 2 42 10 51 34l195 622l-82 -618c-2 -20 7 -38 33 -38h88c21 0 37 14 39 34l85 808c2 19 -11 32 -32 32h-160c-18 0 -58 5 -75 -40l-155 -522l-39 522c-6 41 -45 40 -68 40
h-156c-19 0 -38 -13 -40 -32l-85 -808c-2 -16 14 -34 33 -34h91z" />
    <glyph glyph-name="n" unicode="n" horiz-adv-x="788" 
d="M530 -90c-96 -1 -125 67 -136 107v0l-53 202l-20 -228v-1c-5 -45 -42 -79 -87 -79h-92c-53 0 -120 53 -112 124l85 809c5 44 44 79 88 79h118c60 0 128 -11 142 -108l35 -149l15 177v1c5 44 42 79 86 79h95c43 0 119 -35 110 -115l-85 -809c-5 -50 -41 -88 -86 -88z
M597 1c19 0 34 17 37 43l85 809c1 10 -13 25 -29 25h-95c-19 0 -35 -15 -37 -34l-47 -558l-132 557c-13 32 -28 35 -62 35h-118c-19 0 -37 -15 -39 -34l-85 -809c-2 -19 12 -34 31 -34h92c20 0 36 15 38 34l50 578l152 -580c6 -23 37 -33 56 -33z" />
    <glyph glyph-name="o" unicode="o" 
d="M337 -99c-165 0 -314 166 -296 335l43 412c17 160 155 285 315 285h41c164 0 312 -165 295 -329l-43 -413c-16 -157 -160 -290 -313 -290h-42zM343 -9c126 0 250 111 264 245l42 413c15 137 -80 239 -213 239h-41c-135 0 -251 -104 -266 -240l-43 -412
c-15 -144 83 -245 215 -245h42zM332 139c-55 0 -95 47 -89 102l42 409c6 55 56 96 111 96h4c55 0 94 -41 88 -96l-42 -409c-6 -55 -55 -102 -109 -102h-5zM342 184c28 0 55 26 59 57l42 409c1 2 1 4 1 5c-3 1 -6 1 -9 1h-4c-31 0 -57 -22 -60 -51l-43 -409
c-1 -4 -1 -8 0 -11c3 -1 6 -1 9 -1h5z" />
    <glyph glyph-name="p" unicode="p" horiz-adv-x="685" 
d="M143 -89c-81 0 -118 80 -113 122l85 808c5 46 42 80 89 80h244c165 0 274 -128 253 -301l-25 -236c-15 -137 -129 -240 -265 -240l-65 1l-17 -157c-5 -44 -45 -77 -90 -77h-96zM203 1c20 0 39 13 41 32l21 202l111 -1c109 0 202 80 214 195l26 236
c15 134 -29 211 -173 211h-244c-23 0 -37 -15 -39 -35l-85 -808c-2 -19 9 -32 32 -32h96zM372 430c14 0 27 11 28 26l21 198l-29 1l-24 -225h4zM312 745l93 -1c40 0 67 -29 63 -69l-23 -219c-4 -39 -38 -71 -77 -71h-94z" />
    <glyph glyph-name="q" unicode="q" 
d="M437 -264c-23 0 -45 10 -59 27c-43 50 -66 80 -40 45l-101 136c-140 26 -202 155 -188 289l44 412c17 160 155 285 315 285h41c164 0 311 -165 294 -329l-42 -413c-10 -92 -64 -178 -142 -233l24 -31c9 -16 14 -35 12 -54c-2 -26 -17 -51 -38 -66l-66 -50
c-16 -11 -36 -18 -54 -18zM402 -174c9 0 18 3 27 10l64 48c10 7 16 19 17 31c1 11 -2 22 -10 31l-48 65c85 39 153 124 163 222l43 413c14 137 -81 239 -214 239h-41c-135 0 -251 -104 -265 -240l-44 -412c-12 -123 50 -223 159 -239h-1l120 -153c7 -10 19 -15 30 -15z
M340 136c-55 0 -95 47 -89 102l43 409c6 55 55 96 110 96h4c55 0 95 -41 89 -96l-43 -409c-6 -55 -55 -102 -109 -102h-5zM350 181c28 0 56 26 59 57l43 409c0 2 0 4 1 5c-3 1 -6 1 -9 1h-4c-31 0 -58 -22 -61 -51l-43 -409c0 -4 -1 -8 0 -11c3 -1 6 -1 9 -1h5z" />
    <glyph glyph-name="r" unicode="r" horiz-adv-x="696" 
d="M143 -90c-86 0 -118 80 -113 122l85 808c5 46 42 80 89 80h244c165 0 274 -128 253 -301l-25 -236c-7 -65 -36 -124 -83 -167l51 -212c2 -8 2 -16 1 -23c-4 -39 -38 -71 -77 -71h-105c-78 0 -113 71 -121 108l-6 33l-7 -64c-5 -44 -45 -77 -90 -77h-96zM203 0
c20 0 39 13 41 32l21 202l84 -1l36 -196c3 -22 20 -37 42 -37h105c14 0 27 12 28 26c0 3 0 6 -1 9l-57 239c48 34 81 88 88 154l26 236c15 134 -29 211 -173 211h-244c-23 0 -37 -15 -39 -35l-85 -808c-2 -19 9 -32 32 -32h96zM372 429c14 0 27 11 28 26l21 198l-29 1
l-24 -225h4zM312 744l93 -1c40 0 67 -29 63 -69l-23 -219c-4 -39 -38 -71 -77 -71h-94z" />
    <glyph glyph-name="s" unicode="s" horiz-adv-x="695" 
d="M341 -106c-195 0 -328 150 -309 314l1 2c6 56 42 86 95 84c27 0 65 -1 72 -1c40 0 70 -21 81 -53c10 -36 1 -59 44 -73c31 0 51 20 55 56c1 5 0 10 0 19c0 4 0 8 -1 12c-10 4 -24 7 -42 11c-169 39 -273 184 -260 366s146 302 333 302c165 0 306 -161 289 -319v-2
c-6 -44 -42 -79 -85 -80h-93c-103 6 -110 80 -107 119l1 8c-34 -1 -55 -24 -59 -68c-2 -12 -2 -17 -2 -22c1 -5 2 -10 3 -14c10 -4 25 -9 43 -13c166 -42 274 -155 269 -323c-1 -12 -2 -23 -3 -32c-19 -180 -144 -293 -325 -293zM306 -16c150 0 258 87 275 248
c1 9 2 18 2 28c6 151 -65 204 -199 238c-81 21 -107 46 -115 107c-1 11 0 21 1 31c8 70 51 113 112 113c7 0 16 -1 24 -2c42 -9 58 -45 54 -82l-1 -9c-3 -19 9 -33 28 -34h87c19 -1 36 14 40 36v1c14 134 -79 229 -209 229c-157 0 -271 -95 -283 -256
c-5 -78 -12 -232 190 -278c73 -16 111 -38 114 -106c0 -9 0 -17 -1 -25c-7 -70 -58 -101 -105 -101c-44 0 -85 29 -80 78c3 31 -15 48 -44 48c-8 0 -46 1 -73 1c-21 1 -40 -2 -45 -40l-1 -1c-16 -149 96 -224 229 -224z" />
    <glyph glyph-name="t" unicode="t" horiz-adv-x="597" 
d="M246 -90c-77 0 -114 81 -109 124l64 609h-31c-84 0 -118 81 -113 120l8 80c5 44 43 78 89 78h393c49 0 124 -34 114 -123l-8 -80c-5 -44 -43 -75 -90 -75h-70l-69 -654c-4 -43 -42 -79 -85 -79h-93zM303 0c18 0 34 15 36 34l73 699h115c20 0 38 10 41 30l8 80
c2 24 -14 33 -34 33h-393c-21 0 -37 -14 -39 -33l-8 -80c-2 -19 11 -30 32 -30h121l-73 -699c-2 -19 12 -34 28 -34h93z" />
    <glyph glyph-name="u" unicode="u" horiz-adv-x="750" 
d="M43 243l60 576c7 66 45 101 111 101h45c92 0 140 -55 132 -145l-58 -570c0 -4 -1 -8 0 -11c2 -1 5 -1 7 -1h20c30 0 57 25 60 57l61 570c7 65 45 100 110 100h49c70 0 143 -50 133 -146l-62 -576c-11 -103 -76 -203 -172 -251c-256 -127 -523 39 -496 296zM353 -3
c44 0 87 12 127 34c80 44 136 123 145 212l63 576c5 46 -11 56 -52 56h-49c-35 0 -56 -10 -61 -55l-61 -570c-6 -56 -55 -102 -110 -102h-20c-53 0 -93 46 -87 102l58 570c3 25 1 40 -7 46c-9 9 -10 9 -44 9h-45c-36 0 -57 -11 -62 -56l-60 -576c-4 -44 2 -85 21 -123
c35 -75 109 -123 199 -123h45z" />
    <glyph glyph-name="v" unicode="v" horiz-adv-x="729" 
d="M278 -90c-93 0 -121 77 -124 114l-78 810c-5 46 34 86 84 86h106c36 0 92 -22 106 -106l23 -265l89 308c14 41 42 63 83 63h107c61 0 128 -51 100 -143l-243 -798c-12 -40 -53 -69 -96 -69h-157zM399 0c21 0 43 14 49 33l250 810c6 18 -8 32 -29 32h-107
c-21 0 -29 -9 -34 -27l-184 -637l-56 622c0 28 -11 42 -27 42h-106c-21 0 -36 -14 -34 -32l78 -810c2 -19 21 -33 43 -33h157z" />
    <glyph glyph-name="w" unicode="w" horiz-adv-x="969" 
d="M254 -90c-93 0 -110 74 -115 106l-63 824c-2 42 36 80 82 80h90c43 0 111 -35 116 -113l4 -78l26 110c13 51 52 81 105 81h76c54 0 122 -42 126 -121l5 -80l31 129c11 42 50 72 90 72h90c40 0 127 -46 107 -121l-215 -810c-12 -47 -49 -79 -92 -79h-125
c-80 0 -107 69 -114 101l-7 -23c-14 -46 -51 -78 -93 -78h-124zM342 0c20 0 38 16 46 41l109 416l24 -426c2 -16 16 -31 35 -31h125c20 0 38 16 45 41l214 809c2 10 -12 25 -28 25h-90c-19 0 -36 -15 -42 -34l-133 -569l-31 564c-2 26 -15 39 -46 39h-76
c-27 0 -48 -10 -56 -42l-131 -561l-28 572c-2 16 -17 31 -36 31h-90c-19 0 -34 -15 -32 -31l63 -813c-1 -16 16 -31 34 -31h124z" />
    <glyph glyph-name="x" unicode="x" horiz-adv-x="713" 
d="M140 -90c-116 -9 -182 56 -128 152c2 7 13 38 201 392l-110 357c-4 14 -5 26 -4 36c6 50 45 73 118 73h67c47 0 112 -7 118 -138l34 75c20 43 51 63 99 63h66c71 0 137 -49 142 -115c1 -16 -10 -39 -24 -64v0l-183 -332c116 -353 126 -374 131 -392c5 -16 6 -30 5 -42
c-8 -71 -79 -64 -123 -65c-106 -3 -155 12 -186 105l-15 46l-47 -96c-36 -53 -64 -47 -161 -55zM168 0c24 0 43 14 53 29l113 227l72 -223c7 -20 20 -33 46 -33h61c46 0 71 -2 74 20c0 7 -1 15 -4 26c-4 15 -16 40 -136 408l193 350c11 21 17 36 18 46c2 25 -22 25 -62 25
h-66c-20 0 -38 -1 -52 -33l-100 -217l-52 217c-7 30 -26 33 -47 33h-67c-43 0 -65 -5 -68 -28c-1 -10 3 -24 10 -43l108 -350c-203 -381 -202 -389 -210 -407c-5 -9 -7 -17 -8 -23c-3 -29 35 -24 60 -24h64z" />
    <glyph glyph-name="y" unicode="y" horiz-adv-x="658" 
d="M276 -95c-111 0 -120 84 -115 124l37 352c-1 8 -2 15 -3 22l-113 405c-4 16 -6 33 -5 47c5 45 38 68 98 68h77c43 0 110 -12 121 -103c1 -10 7 -28 11 -52l42 97c16 37 47 58 86 58h79c59 0 133 -26 123 -117c-1 -13 -6 -29 -12 -42v-1l-187 -380c-9 -15 -13 -30 -17 -45
l-37 -354c-5 -44 -47 -79 -93 -79h-92zM332 -5c21 0 42 15 44 34l37 356c4 20 11 40 21 60l187 379c5 11 7 20 8 27c3 25 -18 27 -42 27h-79c-16 0 -31 -5 -40 -27l-117 -270c0 1 0 0 -63 270c-6 23 -21 27 -40 27h-77c-30 0 -47 -4 -49 -23c0 -8 0 -18 4 -31l105 -379
c7 -20 11 -40 12 -60l-37 -356c-2 -19 14 -34 34 -34h92z" />
    <glyph glyph-name="z" unicode="z" horiz-adv-x="663" 
d="M159 -92c-153 0 -161 82 -155 133c2 18 9 38 19 60v1l275 531l-91 1c-96 1 -116 82 -112 127l9 83c6 42 45 76 88 76h388c48 0 125 -36 114 -142c-1 -13 -5 -26 -12 -41l-267 -537h108c42 0 119 -13 107 -125v-1l-6 -74c-5 -50 -44 -92 -87 -92h-378zM501 -2
c17 0 35 21 38 46l6 74c2 25 -7 37 -27 37h-237l7 14l313 628c4 9 7 17 8 26c3 28 -10 52 -34 52h-388c-19 0 -37 -15 -38 -35l-9 -79c-1 -18 13 -37 32 -37l219 -2l-5 -13l-323 -624c-8 -18 -13 -32 -14 -44c-4 -35 24 -42 49 -42z" />
    <glyph glyph-name="fraction" unicode="&#x2044;" horiz-adv-x="570" 
d="M120 -91c-42 0 -75 23 -88 56c-31 17 -50 50 -46 89c2 13 5 26 11 37l389 771h1c18 36 52 57 90 57h40c42 0 75 -23 88 -56c31 -17 50 -50 46 -89c-2 -13 -5 -25 -12 -41l-390 -770c-19 -33 -53 -54 -89 -54h-40zM124 -1c18 0 36 10 45 29l389 766c4 9 7 16 8 25
c3 30 -19 55 -54 55h-40c-19 0 -36 -10 -46 -29l-387 -766c-5 -9 -7 -16 -8 -25c-3 -30 18 -55 53 -55h40z" />
    <glyph glyph-name="asterisk" unicode="*" horiz-adv-x="556" 
d="M275 438c-23 0 -41 13 -49 32l15 13h-4c-10 -5 -20 -7 -30 -7c-15 0 -31 7 -41 17l-30 37c-4 2 -7 5 -11 8l-29 37v0c-8 10 -13 26 -12 40c2 13 7 24 18 38l-14 -14c-15 11 -24 30 -22 52l5 48c2 17 12 33 25 43l20 -23c-9 11 -14 26 -12 40c3 34 37 54 -8 16l67 61
c13 11 30 17 43 17c15 0 30 -7 40 -19l-16 18c13 15 31 26 50 26h49c16 0 31 -8 41 -20l-21 -19c14 13 28 19 43 19s30 -7 41 -19l32 -37l3 -3c2 -1 4 -3 5 -5l33 -37c7 -10 11 -23 10 -37c-2 -14 -7 -27 -16 -38v-1l21 20c15 -10 23 -28 21 -47l-5 -48
c-3 -24 -19 -46 -40 -55l-14 15c9 -11 14 -26 12 -41c-1 -14 -8 -28 -19 -40l-40 -37c-12 -9 -30 -16 -44 -16c0 0 -4 0 -7 -1l3 26c-3 -31 -33 -59 -64 -59h-49zM345 516c-6 -1 -12 -5 -2 -16zM384 455c-10 11 -5 15 1 16zM288 528c6 0 14 7 15 14l7 68l38 -44
c4 -3 5 -4 9 -4c3 0 7 1 11 4l37 34c3 4 4 6 5 10c0 4 0 7 -3 10l-48 55h77c7 0 14 7 15 16l5 48c1 6 -5 13 -12 13h-63l44 41c4 4 5 6 5 12c1 4 0 7 -3 9l-29 33c-3 3 -6 6 -11 6c-4 0 -6 -3 -9 -6l-48 -44l6 56c1 6 -6 14 -12 14h-49c-6 0 -13 -8 -14 -14l-7 -66l-44 50
c-2 3 -5 5 -9 5c-3 0 -7 -2 -12 -5l-35 -33c-2 -3 -5 -6 -5 -11c-1 -4 1 -7 3 -9l33 -38h-55c-7 0 -13 -7 -14 -13l-5 -48c-1 -9 4 -16 11 -16h68l-56 -51c-2 -3 -4 -5 -5 -9c0 -3 2 -8 3 -10l29 -35c3 -3 7 -4 10 -4c5 0 8 1 12 4l53 49l-8 -77c-1 -7 3 -14 11 -14h49z" />
    <glyph glyph-name="backslash" unicode="\" horiz-adv-x="445" 
d="M237 -95c-33 0 -63 22 -73 52c-24 12 -42 35 -44 64l-60 829c-2 45 36 84 83 84h94c35 0 64 -21 74 -52c24 -12 41 -35 44 -64l59 -829c2 -45 -36 -84 -82 -84h-95zM296 -5c19 0 34 15 32 34l-58 826c-2 19 -18 34 -38 34h-94c-19 0 -34 -15 -32 -34l59 -826
c2 -19 18 -34 36 -34h95z" />
    <glyph glyph-name="periodcentered" unicode="&#xb7;" horiz-adv-x="320" 
d="M190 230c-53 0 -98 28 -121 70c-39 27 -62 75 -57 128c9 83 85 152 169 152c53 0 97 -28 120 -70c39 -27 62 -74 57 -127c-9 -84 -85 -153 -168 -153zM154 320c58 0 112 49 118 108c7 58 -37 107 -95 107c-59 0 -113 -49 -120 -107c-6 -59 38 -108 97 -108z" />
    <glyph glyph-name="bullet" unicode="&#x2022;" horiz-adv-x="495" 
d="M270 181c-68 0 -126 34 -159 86c-48 39 -76 101 -69 171c13 116 117 210 233 210c69 0 127 -34 161 -86c47 -39 75 -100 68 -169c-12 -115 -119 -212 -234 -212zM235 271c90 0 174 77 183 167c10 91 -58 165 -148 165c-91 0 -173 -74 -183 -165c-9 -90 57 -167 148 -167z
" />
    <glyph glyph-name="colon" unicode=":" horiz-adv-x="320" 
d="M164 350c-37 0 -66 21 -76 53c-30 14 -48 46 -44 83l10 95c5 51 48 90 99 90h95c38 0 68 -21 77 -53c31 -14 49 -45 45 -82l-10 -95c-6 -51 -50 -91 -101 -91h-95zM177 0c26 0 49 20 51 46l10 95c3 27 -15 45 -41 45h-95c-25 0 -47 -18 -50 -45l-10 -95
c-2 -26 15 -46 40 -46h95zM118 -90c-37 0 -66 21 -76 53c-30 14 -49 46 -45 83l10 95c6 51 49 90 100 90h95c38 0 68 -21 77 -53c31 -14 48 -45 45 -82l-10 -95c-6 -51 -50 -91 -101 -91h-95zM224 440c26 0 48 20 51 46l10 95c2 27 -16 45 -42 45h-95c-25 0 -47 -18 -49 -45
l-10 -95c-3 -26 15 -46 40 -46h95z" />
    <glyph glyph-name="comma" unicode="," horiz-adv-x="355" 
d="M124 -179c-29 0 -51 19 -55 46c-26 6 -42 30 -39 59c0 0 8 25 20 43c4 4 6 9 10 13c-14 16 -20 38 -18 62l10 94c5 50 48 90 97 90h97c37 0 66 -22 77 -53c29 -14 48 -45 44 -82l-10 -94c-1 -17 -8 -35 -20 -50l-87 -104v-1c-14 -16 -32 -23 -58 -23h-68zM156 -89
c10 0 17 1 21 5l79 95c10 10 15 22 16 33l10 94c3 25 -15 45 -40 45h-97c-23 0 -45 -19 -48 -45l-10 -94c-2 -20 7 -36 23 -43c3 -1 5 -5 4 -10c0 -2 0 -4 -1 -5l-32 -49c-5 -3 -6 -7 -6 -11c-1 -9 4 -15 13 -15h68z" />
    <glyph glyph-name="ellipsis" unicode="&#x2026;" horiz-adv-x="720" 
d="M132 -93c-36 0 -65 22 -76 53c-30 14 -49 46 -45 84l10 95c6 50 50 90 100 90h95c21 0 39 -6 53 -18c16 13 37 20 59 20h95c22 0 41 -7 56 -19c16 12 36 19 58 19h95c38 0 68 -21 77 -53c31 -14 49 -45 45 -82l-10 -95c-6 -51 -50 -91 -101 -91h-95c-21 0 -40 7 -54 20
c-17 -13 -38 -20 -60 -20h-95c-20 0 -38 7 -52 18c-17 -13 -38 -21 -60 -21h-95zM191 -3c26 0 49 21 51 47l10 95c3 26 -15 45 -41 45h-95c-25 0 -47 -19 -50 -45l-10 -95c-2 -26 15 -47 40 -47h95zM399 0c27 0 49 20 52 46l10 95c2 27 -16 45 -43 45h-95
c-25 0 -47 -18 -49 -45l-10 -95c-3 -26 15 -46 40 -46h95zM608 0c26 0 48 20 51 46l10 95c2 27 -16 45 -42 45h-95c-25 0 -47 -18 -49 -45l-10 -95c-3 -26 15 -46 40 -46h95z" />
    <glyph glyph-name="exclam" unicode="!" horiz-adv-x="415" 
d="M151 -90c-37 0 -66 21 -77 53c-29 14 -48 46 -44 83l10 95c3 27 16 51 37 68c-14 12 -21 31 -18 52l50 576c4 53 39 86 90 87h115c48 0 74 -17 80 -50c32 -11 45 -36 41 -76v-1l-73 -583c-2 -20 -13 -38 -29 -50c18 -17 26 -41 23 -68l-10 -95c-5 -51 -49 -91 -100 -91
h-95zM210 0c26 0 48 20 51 46l10 95c3 27 -15 45 -41 45h-95c-25 0 -47 -18 -50 -45l-10 -95c-3 -26 15 -46 40 -46h95zM242 234c19 0 33 11 34 26l74 583c3 33 -11 36 -40 36h-108c-30 1 -46 -11 -48 -41l-50 -577c-2 -15 10 -27 30 -27h108z" />
    <glyph glyph-name="exclamdown" unicode="&#xa1;" horiz-adv-x="415" 
d="M141 -94c-46 0 -74 16 -80 50c-32 10 -45 36 -41 78l75 584c3 19 12 36 27 48c-17 17 -26 41 -23 68l10 95c5 51 49 91 100 91h95c37 0 66 -21 77 -53c29 -14 48 -46 44 -83l-10 -95c-3 -27 -16 -51 -37 -67c14 -13 21 -31 18 -53l-50 -575c-4 -53 -38 -87 -90 -88h-115z
M214 -4c30 -1 44 12 47 42l50 576c2 15 -9 27 -29 27h-109c-19 0 -32 -11 -34 -26l-74 -582c-4 -34 11 -37 40 -37h109zM280 689c25 0 47 19 50 45l10 95c2 26 -15 46 -40 46h-95c-26 0 -49 -20 -51 -46l-10 -95c-3 -26 15 -45 41 -45h95z" />
    <glyph glyph-name="numbersign" unicode="#" horiz-adv-x="820" 
d="M386 -90c-33 0 -57 20 -63 49h-2c-18 -27 -48 -45 -78 -45h-92c-92 0 -114 83 -102 129l28 103h-5c-88 0 -103 75 -98 115c0 9 3 19 9 39l19 70c12 39 48 68 83 68h29c-54 17 -60 72 -58 98c1 6 3 12 4 18l26 94c12 36 48 65 83 65h68l40 141c12 41 50 71 90 71h92
c32 0 56 -20 62 -48c1 -1 1 -1 2 -1c18 27 48 45 79 45h92c42 0 133 -14 102 -127l-23 -81h14c36 0 116 -29 100 -115c-2 -7 -3 -14 -6 -21l-27 -97c-12 -34 -45 -59 -80 -59h-27c68 -32 60 -68 57 -97c0 -6 -2 -11 -4 -17l-29 -101c-13 -34 -44 -58 -79 -58h-77l-48 -167
c-12 -40 -50 -71 -89 -71h-92zM442 0c17 0 36 15 42 34l57 204h115c15 0 32 13 34 32l27 93c1 1 2 3 2 6c1 14 -7 25 -18 25h-116l33 117h121c15 0 31 14 34 33l26 92c2 2 2 4 3 7c1 15 -6 25 -20 25h-121l50 175c6 18 -5 33 -22 33h-92c-19 0 -36 -15 -42 -33l-50 -175h-79
l50 178c6 19 -4 34 -21 34h-92c-19 0 -37 -15 -43 -34l-50 -178h-106c-14 0 -31 -15 -35 -32l-26 -92c-1 -1 -1 -4 -2 -8c-1 -15 8 -25 19 -25h106l-34 -118h-112c-14 0 -29 -15 -35 -32l-26 -92v-8c-2 -15 5 -25 18 -25h112l-56 -198c-6 -19 4 -34 23 -34h92
c17 0 35 15 41 34l56 199h80l-57 -203c-6 -19 3 -34 22 -34h92zM382 511h80l-33 -117l-81 -1z" />
    <glyph glyph-name="period" unicode="." horiz-adv-x="356" 
d="M158 -93c-36 0 -65 22 -76 53c-30 14 -49 46 -45 84l10 95c6 50 50 90 100 90h95c38 0 67 -21 77 -53c31 -14 49 -45 45 -82l-10 -95c-6 -51 -50 -92 -101 -92h-95zM218 -3c26 0 48 21 50 47l10 95c3 26 -15 45 -41 45h-95c-25 0 -47 -19 -50 -45l-10 -95
c-2 -26 16 -47 41 -47h95z" />
    <glyph glyph-name="question" unicode="?" horiz-adv-x="595" 
d="M225 -93c-36 0 -64 22 -74 53c-31 14 -50 46 -46 84l10 94c3 26 17 50 35 66c-16 16 -27 40 -25 68c23 176 78 231 130 261c-8 -2 -16 -4 -24 -4h-86c-34 0 -60 21 -69 51c-29 12 -47 41 -43 76v2c16 150 138 267 288 276c12 1 25 1 35 1c107 0 181 -33 222 -97
c61 -49 86 -132 74 -248c-39 -369 -188 -200 -219 -360c-4 -21 -4 -35 -15 -54c-3 -6 -7 -12 -12 -16c15 -17 23 -40 21 -67l-10 -94c-6 -50 -49 -92 -98 -92h-94zM283 -3c23 0 46 21 48 47l10 94c3 26 -13 45 -38 45h-94c-24 0 -46 -19 -49 -45l-10 -94
c-2 -26 15 -47 39 -47h94zM293 227c34 0 45 4 51 24c20 192 195 125 222 384c18 171 -50 255 -215 255c-10 0 -21 0 -32 -1c-126 -7 -228 -105 -241 -231v-2c-3 -21 12 -37 32 -37h85c19 1 35 16 37 35l1 9c6 55 53 84 98 84c43 0 84 -27 80 -84
c-16 -273 -205 -118 -241 -390c0 -25 16 -45 40 -45c37 0 64 -1 83 -1zM283 548c43 21 77 37 83 109c-27 0 -45 -16 -47 -39l-1 -9c-3 -24 -16 -46 -35 -61z" />
    <glyph glyph-name="questiondown" unicode="&#xbf;" horiz-adv-x="595" 
d="M276 -104c-80 -1 -142 24 -188 75c-7 7 -13 16 -20 24c-7 7 -13 13 -20 21c-36 39 -55 91 -53 150c1 35 2 65 5 94c12 115 51 201 113 238c21 14 47 24 82 34c6 1 10 2 13 3c2 9 4 21 7 38c2 22 8 61 29 89c-24 16 -38 44 -34 76l9 93c6 51 49 92 99 92h94
c35 0 63 -21 74 -52c30 -14 49 -47 45 -85l-10 -93c-3 -27 -16 -50 -35 -66c17 -16 27 -40 25 -67c-2 -26 -2 -45 -3 -57c-12 -109 -69 -170 -202 -216c-19 -11 -25 -22 -27 -38c-1 -6 -2 -13 -3 -21l-6 -55h4c5 0 8 0 12 1c18 7 31 22 32 39l1 8c5 43 42 78 87 80h86
c34 0 60 -21 69 -51c29 -12 47 -41 43 -76v-1c-7 -71 -42 -142 -95 -194c-53 -53 -124 -83 -197 -83h-36zM276 -14c59 0 118 23 163 68c44 44 73 102 80 164v1c2 21 -12 37 -32 37h-85c-19 -1 -36 -16 -38 -35l-1 -8c-4 -37 -31 -70 -68 -82c-8 -2 -17 -3 -26 -3h-9
c0 1 -3 1 -5 1c-49 5 -75 42 -71 84l7 60c0 3 1 12 3 23c2 23 13 52 56 77c129 43 164 93 173 175c1 10 1 28 2 55c2 25 -15 45 -39 45l-88 -2c-29 0 -34 -41 -38 -75c-4 -22 -7 -38 -10 -50c-8 -22 -22 -27 -49 -33c-25 -7 -48 -15 -67 -27c-37 -22 -76 -82 -89 -201
c-3 -30 -4 -60 -4 -90c-2 -50 12 -91 42 -122c37 -43 88 -63 156 -62h37zM388 693c25 0 45 20 48 45l9 93c3 27 -15 47 -38 47h-94c-24 0 -46 -20 -49 -47l-9 -93c-3 -25 15 -45 39 -45h94z" />
    <glyph glyph-name="quotedbl" unicode="&#x22;" horiz-adv-x="486" 
d="M160 470c-48 0 -76 18 -86 52c-33 14 -48 44 -43 92l22 209c7 65 44 98 110 98h31c32 0 55 -7 70 -22c19 15 44 22 76 22h30c29 0 64 0 84 -37c1 -4 3 -8 3 -13c15 -5 28 -14 37 -32c6 -13 8 -36 6 -61l-22 -209c-7 -68 -43 -99 -111 -99h-30c-30 0 -53 9 -68 25
c-19 -17 -45 -25 -78 -25h-31zM156 560c36 0 56 9 60 54l22 209c5 46 -13 53 -49 53h-31c-35 0 -55 -8 -60 -53l-22 -209c-4 -46 14 -54 49 -54h31zM332 560c39 0 56 8 60 54l22 209c2 17 2 30 -2 38c-8 15 -18 15 -47 15h-30c-36 0 -56 -7 -61 -53l-22 -209
c-3 -36 14 -54 50 -54h30z" />
    <glyph glyph-name="quotesingle" unicode="'" horiz-adv-x="340" 
d="M148 537c-28 0 -49 19 -52 46c-26 5 -43 29 -40 58c0 0 11 29 23 47l2 4c-11 15 -16 35 -14 57l9 86c5 48 46 86 94 86h88c36 0 64 -21 74 -52c29 -13 47 -43 43 -79l-9 -86c-1 -17 -8 -34 -19 -48l-80 -97c-14 -15 -32 -22 -56 -22h-63zM175 627c10 0 15 1 20 5l72 87
c9 9 13 19 14 30l9 86c3 23 -14 41 -37 41h-88c-22 0 -41 -17 -44 -41l-9 -86c-7 -38 25 -62 26 -48c0 -3 0 -4 -2 -5l-30 -45c-4 -3 -5 -7 -5 -10c-1 -8 3 -14 11 -14h63z" />
    <glyph glyph-name="semicolon" unicode=";" horiz-adv-x="320" 
d="M84 -179c-29 0 -51 19 -54 46c-26 6 -43 30 -40 59c0 0 9 25 21 43l8 13c-12 17 -19 39 -16 62l10 94c5 50 48 90 98 90h96c37 0 66 -22 77 -53c29 -14 48 -45 44 -82l-10 -94c-2 -17 -9 -34 -19 -49l-88 -107c-15 -15 -34 -22 -58 -22h-69zM34 3l11 11v3
c-4 -4 -8 -9 -11 -14zM118 -89c10 0 16 1 20 5l78 95c10 10 16 22 17 33l10 94c2 25 -16 45 -41 45h-96c-24 0 -46 -19 -48 -45l-10 -94c-2 -20 7 -36 22 -43c4 -1 7 -5 6 -10c0 -2 0 -4 -2 -5l-32 -49c-5 -3 -6 -7 -7 -11c-1 -9 5 -15 14 -15h69zM226 440c27 0 49 20 52 46
l10 95c3 27 -15 45 -42 45h-95c-25 0 -47 -18 -50 -45l-10 -95c-3 -26 15 -46 40 -46h95zM167 350c-37 0 -66 21 -76 53c-30 14 -49 46 -45 83l10 95c6 51 49 90 100 90h95c39 0 68 -21 79 -53c30 -14 47 -45 43 -82l-10 -95c-5 -51 -49 -91 -101 -91h-95z" />
    <glyph glyph-name="slash" unicode="/" horiz-adv-x="445" 
d="M95 -94c-34 0 -59 21 -66 49c-30 12 -48 44 -39 80l233 825c12 39 51 68 91 68h93c34 0 59 -21 65 -49c31 -11 48 -42 40 -76l-235 -835c-13 -35 -51 -62 -90 -62h-92zM152 -4c19 0 40 15 43 34l232 821c5 17 -5 32 -25 32h-93c-19 0 -38 -15 -43 -32l-232 -821
c-6 -19 7 -34 26 -34h92z" />
    <glyph glyph-name="underscore" unicode="_" horiz-adv-x="570" 
d="M104 -90c-32 0 -57 21 -64 49c-27 10 -45 38 -42 69l10 97c5 41 41 74 81 74h420c31 0 55 -21 62 -49c27 -9 45 -38 42 -70l-11 -97c-4 -39 -39 -73 -78 -73h-420zM488 0c14 0 28 13 29 28l10 97c2 16 -9 29 -23 29h-420c-15 0 -29 -13 -31 -29l-10 -97
c-1 -15 10 -28 25 -28h420z" />
    <glyph glyph-name="braceleft" unicode="{" horiz-adv-x="558" 
d="M304 -333c-59 0 -108 30 -136 76c-43 34 -69 90 -63 154c0 0 14 79 17 105c8 39 14 82 18 124c7 66 8 102 3 121c-2 7 -6 15 -11 24c-28 24 -63 46 -96 57c-19 8 -33 24 -35 44c-2 0 -4 1 -6 1c-24 9 -37 32 -34 58c2 28 22 51 50 58c75 22 152 86 170 139
c7 19 13 57 19 110c10 95 13 204 13 204l1 3l3 36c11 103 99 185 198 185h338c30 0 56 -21 64 -49c27 -11 45 -41 42 -73l-10 -99c-5 -45 -45 -80 -91 -80h-229c-1 -47 -4 -128 -12 -202c-7 -69 -18 -120 -30 -151c-16 -41 -53 -79 -102 -107c9 -9 18 -20 25 -31
c25 -21 47 -48 53 -86c6 -30 5 -79 -3 -154c-6 -58 -15 -119 -22 -167h180c36 0 64 -21 72 -51c29 -12 47 -41 43 -77l-8 -77c-5 -54 -49 -95 -101 -95h-320zM589 -243c26 0 48 20 51 50l8 77c2 21 -11 38 -35 38h-272c-3 0 -4 3 -3 8c0 0 25 133 37 249c6 57 10 111 4 142
c-11 65 -89 90 -137 107c-6 2 -9 8 -8 15c0 5 5 11 11 13c74 20 140 63 160 114c12 30 21 81 27 138c11 111 13 237 13 237v4c-1 4 1 6 5 6h273c22 0 38 16 40 35l11 99c1 16 -11 32 -26 32h-338c-75 0 -139 -62 -148 -140l-3 -36s-4 -110 -14 -207c-5 -48 -12 -94 -21 -120
c-20 -58 -99 -142 -206 -172c-8 -2 -12 -8 -12 -15c-1 -6 1 -12 9 -15c75 -26 156 -97 172 -153c8 -29 4 -80 -2 -137c-11 -105 -35 -225 -34 -227l-1 -2c-8 -77 46 -140 119 -140h320zM530 906c1 2 1 3 1 4h-1v-4z" />
    <glyph glyph-name="braceright" unicode="}" horiz-adv-x="558" 
d="M-134 -333c-37 0 -66 21 -76 53c-31 14 -49 47 -45 87l8 77c5 47 45 83 92 83h229c2 49 6 134 14 212c8 75 17 124 29 154c19 51 62 83 104 104c-8 9 -15 19 -22 29c-31 25 -52 57 -58 91c-7 32 -6 86 1 151c5 54 14 112 22 157h-181c-35 0 -62 21 -71 51
c-27 11 -45 40 -42 74l11 99c4 41 42 77 82 77h337c60 0 110 -30 137 -76c44 -33 69 -90 63 -154l-4 -36l-1 -4s-20 -108 -30 -203c-5 -48 -6 -89 -3 -109c2 -16 8 -33 19 -49c23 -20 53 -37 82 -46c21 -6 34 -23 37 -44c1 0 2 0 3 -1c25 -7 41 -31 38 -58
c-3 -25 -21 -48 -47 -57c-69 -22 -154 -85 -175 -127c-9 -19 -17 -58 -23 -121c-2 -20 -3 -39 -5 -59c-2 -35 -9 -172 -7 -168v-2c-11 -102 -100 -185 -198 -185h-320zM151 -243c73 0 139 63 147 140l1 2c1 2 0 122 11 227c6 57 15 108 29 137c27 56 123 127 204 153
c7 3 12 9 13 15c0 7 -3 13 -10 15c-101 30 -162 114 -170 172c-3 26 -1 72 4 120c10 97 31 207 31 207l3 36c9 78 -44 140 -119 140h-337c-15 0 -31 -16 -32 -32l-11 -99c-2 -19 12 -35 33 -35h274c4 0 4 -2 3 -6v-4s-27 -126 -38 -237c-6 -57 -8 -108 -2 -138
c10 -51 66 -94 135 -114c7 -2 9 -8 9 -13c-1 -7 -5 -13 -12 -15c-52 -17 -134 -42 -158 -107c-12 -31 -20 -85 -26 -142c-12 -116 -15 -249 -15 -249c-1 -5 -2 -8 -5 -8h-273c-23 0 -40 -17 -42 -38l-8 -77c-3 -30 15 -50 41 -50h320z" />
    <glyph glyph-name="hyphen" unicode="-" horiz-adv-x="428" 
d="M141 281c-37 0 -68 22 -78 53c-29 14 -47 43 -44 77l9 79c5 49 47 85 98 85h205c37 0 68 -22 78 -53c29 -14 47 -43 44 -77l-9 -79c-4 -47 -49 -85 -98 -85h-205zM310 371c25 0 47 19 49 40l9 79c2 21 -16 40 -41 40h-205c-26 0 -47 -16 -49 -40l-9 -79
c-2 -21 16 -40 41 -40h205z" />
    <glyph glyph-name="guillemotleft" unicode="&#xab;" horiz-adv-x="633" 
d="M280 155c-22 0 -46 11 -66 31l-146 156c-3 3 -5 7 -7 10l-33 35c-16 19 -24 46 -20 74c3 21 15 44 34 64l190 174c19 15 41 24 61 24c24 0 47 -11 68 -32l22 -23c4 -4 7 -8 9 -13c1 -1 2 -2 3 -2l50 46c17 13 35 20 54 20c24 0 46 -11 67 -32v0l18 -20c5 -4 8 -9 10 -14
c4 -4 8 -7 12 -11v0l18 -20c14 -14 21 -37 19 -58s-13 -43 -29 -59l-101 -92l76 -85c13 -18 20 -39 18 -60c-2 -19 -12 -40 -28 -57l-30 -27v-1c-18 -16 -39 -24 -62 -24c-22 0 -44 10 -61 26l-37 41c-4 -6 -10 -12 -15 -18l-32 -27c-18 -17 -40 -26 -62 -26zM245 245
c10 0 19 4 29 13l29 25c9 8 13 17 14 26c2 14 -4 27 -17 39l-98 110l137 125c10 8 14 18 15 28s-1 22 -9 29l-17 18c-13 12 -25 20 -40 20c-9 0 -18 -4 -28 -12l-188 -171c-9 -10 -17 -22 -19 -36c-2 -15 1 -31 11 -41l144 -154c11 -11 25 -19 37 -19zM451 249
c10 0 19 2 29 11l28 26c8 9 13 18 14 27c1 12 -5 26 -16 37l-96 108l134 123c8 8 13 18 14 28c1 9 -2 19 -8 26l-18 19c-12 12 -23 20 -37 20c-9 0 -20 -4 -28 -13l-181 -167c-11 -9 -17 -21 -19 -35c-2 -15 1 -30 12 -41l137 -150c10 -12 23 -19 35 -19z" />
    <glyph glyph-name="guillemotright" unicode="&#xbb;" horiz-adv-x="633" 
d="M365 155c-18 0 -35 6 -48 18l-32 32c-4 5 -8 10 -10 15l-5 5l-45 -40c-19 -16 -43 -26 -65 -26c-23 0 -44 8 -58 24v1l-24 27c-1 2 -3 4 -3 6c-5 3 -10 7 -13 11v1l-24 27c-12 17 -18 38 -16 57c2 22 15 45 34 64l90 81l-81 92c-13 16 -19 38 -17 59s14 44 31 58l22 20v0
c25 21 49 32 73 32c19 0 37 -7 50 -20l36 -41c2 -1 3 -3 5 -4l1 -3c6 8 12 16 18 21l22 19c27 21 52 32 77 32c19 0 39 -9 54 -24l39 -43c1 -1 1 -2 2 -2l153 -173c16 -18 23 -42 21 -65c-2 -28 -15 -55 -35 -74l-180 -156c-25 -20 -49 -31 -72 -31zM124 249
c12 0 27 7 39 19l169 150c13 11 20 26 20 41c2 14 -2 26 -11 35l-147 167c-6 9 -15 13 -24 13c-14 0 -27 -8 -41 -20l-22 -19c-8 -7 -13 -17 -14 -26c-1 -10 2 -20 8 -28l109 -123l-119 -108c-14 -11 -23 -25 -24 -37c-1 -9 2 -18 8 -27l22 -26c8 -9 17 -11 27 -11zM330 245
c13 0 26 8 41 19l176 154c12 10 19 26 19 41c2 14 -3 26 -11 36l-152 171c-8 8 -17 12 -25 12c-15 0 -30 -8 -45 -20l-21 -18c-8 -7 -14 -19 -15 -29s3 -20 9 -28l111 -125l-122 -110c-15 -12 -23 -25 -25 -39c-1 -9 2 -18 10 -26l24 -25c7 -9 16 -13 26 -13z" />
    <glyph glyph-name="guilsinglleft" unicode="&#x2039;" horiz-adv-x="408" 
d="M280 155c-22 0 -46 11 -66 31l-146 156c-3 3 -5 7 -7 10l-33 35c-16 19 -24 46 -20 74c3 21 15 44 34 64l190 174c19 15 41 24 61 24c24 0 47 -11 68 -32l22 -23c4 -4 7 -8 9 -13c3 -3 7 -5 10 -9l21 -23c13 -14 19 -35 16 -57c-2 -21 -12 -41 -27 -56l-106 -97l78 -88
c14 -18 21 -39 19 -61c-3 -21 -13 -41 -29 -56l-32 -27c-18 -17 -40 -26 -62 -26zM245 245c10 0 19 4 29 13l29 25c9 8 13 17 14 26c2 14 -4 27 -17 39l-98 110l137 125c10 8 14 18 15 28s-1 22 -9 29l-17 18c-13 12 -25 20 -40 20c-9 0 -18 -4 -28 -12l-188 -171
c-9 -10 -17 -22 -19 -36c-2 -15 1 -31 11 -41l144 -154c11 -11 25 -19 37 -19z" />
    <glyph glyph-name="guilsinglright" unicode="&#x203a;" horiz-adv-x="395" 
d="M153 155c-22 0 -42 9 -56 26l-26 27c-4 4 -6 8 -8 11c-3 2 -5 5 -6 7l-27 27c-13 16 -20 36 -18 56c3 21 14 42 32 60l97 89l-82 93c-15 16 -22 39 -20 60s15 45 31 60l23 20v0c26 21 52 32 77 32c21 0 41 -9 55 -25l37 -41c1 -2 3 -3 3 -4l153 -172
c15 -18 22 -41 21 -64c0 -26 -12 -53 -32 -72l-182 -159c-23 -19 -50 -31 -72 -31zM118 245c12 0 26 8 40 19l176 154c13 10 20 26 19 41c2 14 -3 26 -11 36l-152 171c-7 8 -16 12 -25 12c-15 0 -30 -8 -44 -20l-21 -18c-9 -7 -15 -19 -16 -29s3 -20 10 -28l111 -125
l-122 -110c-15 -12 -24 -25 -26 -39c-1 -9 2 -18 11 -26l23 -25c8 -9 17 -13 27 -13z" />
    <glyph glyph-name="asciitilde" unicode="~" horiz-adv-x="695" 
d="M451 219c-16 0 -33 2 -47 6c-28 8 -55 22 -70 38c-9 8 -15 19 -22 30c-8 5 -14 9 -19 15c-9 10 -18 24 -26 37h-35c1 -1 1 -1 1 -6c28 0 45 -19 26 -43c-9 -13 -24 -24 -38 -28l-30 -8c-20 -5 -32 -7 -42 -7c0 0 -25 4 -41 16c-12 10 -18 21 -19 35c-8 2 -15 6 -21 10
c-13 11 -20 23 -20 39c-5 15 -6 34 -4 55c3 26 14 59 30 87l1 1c28 47 67 80 117 95c27 7 50 10 77 10s54 -8 92 -25c18 -12 34 -28 46 -49c17 -12 31 -28 43 -49c0 2 1 4 1 5c3 36 24 63 58 73l28 7c20 5 31 7 40 7c3 0 10 0 18 -1c20 -4 26 -14 32 -22c0 0 9 -9 12 -24
c17 -5 22 -14 29 -21c0 0 15 -15 12 -42c0 0 3 -28 5 -38c0 -3 0 -5 -1 -8c-3 -30 -14 -63 -30 -89c-25 -42 -77 -77 -138 -95c-14 -2 -44 -11 -65 -11zM236 407v0v0zM276 362v0v0zM415 309c13 0 38 7 55 10c37 11 84 35 106 71c12 20 21 44 23 69c2 15 0 29 -4 44v2
c1 8 -4 10 -8 18c-5 2 -10 2 -15 2h-7l-48 -12c-16 -5 -20 -17 -21 -30c-1 -2 -1 -4 0 -7l-2 -17c-1 -11 -2 -16 -7 -26c-6 -10 -21 -23 -33 -25c-6 -3 -11 -3 -16 -3c-19 0 -34 13 -41 29l-4 11c-12 36 -28 71 -57 91c-28 13 -50 20 -72 20c-21 0 -40 -2 -63 -8
c-38 -12 -66 -35 -88 -72c-10 -17 -22 -43 -24 -68c-2 -17 -2 -32 4 -43c-1 -11 2 -12 9 -17c5 -5 6 -5 12 -5h8l50 13c9 3 19 15 20 28c1 5 1 5 0 6v1c-2 8 -2 14 -1 18c1 9 5 17 10 25c7 11 19 20 32 25h15c23 0 44 -16 46 -36l3 -22c2 -2 8 -33 31 -61
c12 -12 31 -21 51 -26c11 -3 23 -5 36 -5zM645 467c1 -7 1 -6 0 15v-15zM685 422v15c2 -21 2 -22 0 -15zM685 437c0 2 -1 5 0 8c-1 -3 0 -6 0 -8z" />
    <glyph glyph-name="divide" unicode="&#xf7;" horiz-adv-x="695" 
d="M346 71c-47 0 -85 25 -104 63c-36 23 -56 64 -51 111c1 10 3 20 7 30h-29c-38 0 -70 23 -83 55c-31 17 -50 51 -46 91l5 48c6 55 56 101 110 101h97c-12 20 -18 45 -15 71c8 71 71 129 141 129c48 0 86 -25 104 -63c36 -22 56 -63 51 -111c-1 -9 -2 -18 -5 -26h31
c39 0 70 -22 83 -55c31 -17 51 -51 46 -91l-5 -48c-6 -56 -54 -101 -110 -101h-101c13 -21 19 -47 16 -75c-8 -71 -71 -129 -142 -129zM311 161c46 0 87 38 92 84c4 45 -29 83 -75 83c-47 0 -88 -38 -92 -83c-5 -46 28 -84 75 -84zM537 365c31 0 58 25 61 56l5 48
c3 31 -18 56 -49 56h-404c-29 0 -57 -25 -60 -56l-5 -48c-3 -31 19 -56 48 -56h404zM356 559c47 0 87 36 92 82c5 47 -28 84 -75 84c-45 0 -86 -37 -91 -84c-5 -46 29 -82 74 -82z" />
    <glyph glyph-name="emptyset" unicode="&#x2205;" horiz-adv-x="820" 
d="M417 4c-74 0 -146 23 -201 64l-58 -45c-14 -10 -34 -17 -50 -17c-20 0 -41 10 -52 26l-21 28c-8 4 -15 10 -19 17l-26 34h-1c-8 13 -13 30 -11 48c3 23 14 43 30 55l58 45c-19 52 -25 106 -20 157c22 204 204 368 408 368c73 0 144 -22 199 -63l57 44c14 10 32 16 50 16
c22 0 41 -8 53 -23l21 -30c8 -4 14 -9 20 -15l27 -40c8 -12 11 -27 10 -43c-2 -19 -12 -37 -25 -50l-64 -49c19 -49 26 -103 20 -160c-22 -203 -203 -367 -405 -367zM456 257c39 14 74 42 97 77zM390 201c-46 0 -88 15 -121 40l348 274c11 -30 15 -64 11 -99
c-12 -117 -118 -215 -238 -215zM381 94c177 0 337 144 355 322c7 63 -3 120 -30 170l86 68c9 5 13 14 14 21c0 8 -1 14 -5 19l-25 34c-5 6 -12 8 -21 8c-6 0 -13 -1 -20 -6l-86 -67c-51 47 -120 76 -200 76c-179 0 -339 -144 -358 -323c-6 -62 7 -118 30 -168l-87 -68
c-7 -5 -10 -12 -11 -21c0 -6 0 -13 4 -19l26 -34c4 -6 12 -10 20 -10c7 0 14 3 19 7l87 67c52 -47 122 -76 202 -76zM212 319c-12 30 -18 62 -15 97c13 120 121 217 238 217c49 0 92 -15 124 -42zM418 535c-45 -14 -83 -45 -107 -84z" />
    <glyph glyph-name="equal" unicode="=" horiz-adv-x="445" 
d="M139 175c-37 0 -68 22 -77 53c-30 14 -48 43 -44 77l8 79c3 29 20 54 43 69c-22 15 -34 41 -31 70l8 78c5 49 47 85 99 85h205c38 0 68 -22 78 -53c29 -14 47 -43 43 -77l-8 -78c-3 -28 -20 -53 -44 -69c22 -15 35 -41 32 -70l-8 -79c-5 -47 -50 -85 -99 -85h-205z
M309 265c25 0 47 19 49 40l8 79c2 21 -16 40 -41 40h-205c-26 0 -46 -16 -49 -40l-8 -79c-2 -21 16 -40 41 -40h205zM329 483c25 0 46 18 49 40l8 78c2 22 -16 40 -41 40h-205c-27 0 -47 -16 -49 -40l-8 -78c-3 -22 16 -40 41 -40h205z" />
    <glyph glyph-name="greater" unicode="&#x3e;" horiz-adv-x="470" 
d="M176 140c-24 0 -48 9 -65 26l-16 16c-5 5 -8 12 -11 19c-5 3 -10 6 -13 10l-17 16c-14 17 -23 47 -20 71c3 27 17 56 37 74l100 90l-86 99c-16 18 -23 43 -20 68c3 28 17 55 40 74l17 15c21 15 46 25 69 25c25 0 51 -12 69 -31l37 -41c2 -1 3 -2 4 -4l157 -178
c17 -19 25 -47 22 -74c-3 -26 -13 -51 -30 -68l-201 -179c-21 -17 -49 -28 -73 -28zM141 230c13 0 28 6 41 16l190 170c14 10 21 27 23 44c1 14 -2 30 -13 43l-156 177c-11 11 -25 18 -40 18c-14 0 -30 -7 -42 -18l-12 -10c-13 -11 -21 -26 -22 -41c-2 -14 3 -30 13 -41
l112 -127l-136 -121c-11 -10 -19 -27 -20 -42c-1 -13 3 -29 11 -39l11 -11c10 -12 25 -18 40 -18z" />
    <glyph glyph-name="greaterequal" unicode="&#x2265;" horiz-adv-x="470" 
d="M113 -42c-39 0 -69 22 -81 54c-30 15 -49 47 -45 86l3 25c5 45 42 84 85 93l-11 11c-14 17 -23 47 -21 71c3 27 17 56 37 74l101 90l-87 99c-15 18 -22 43 -20 68c3 28 18 55 41 74l17 15c20 15 45 25 68 25c25 0 52 -12 70 -31l37 -41c2 -1 2 -2 3 -4l158 -178
c17 -19 25 -47 22 -74c-3 -26 -14 -51 -30 -68l-145 -129h11c37 0 67 -22 79 -54c31 -15 49 -48 45 -86l-2 -25c-6 -54 -51 -95 -104 -95h-231zM308 48c28 0 51 21 54 50l3 25c3 26 -16 50 -44 50h-231c-28 0 -52 -24 -55 -50l-3 -25c-3 -29 16 -50 45 -50h231zM150 230
c13 0 29 6 42 16l190 170c14 10 21 27 23 44c1 14 -2 30 -13 43l-156 177c-11 11 -25 18 -40 18c-14 0 -30 -7 -42 -18l-12 -10c-14 -11 -21 -26 -23 -41c-1 -14 3 -30 14 -41l112 -127l-136 -121c-11 -10 -19 -27 -21 -42c-1 -13 3 -29 11 -39l11 -11c11 -12 25 -18 40 -18
z" />
    <glyph glyph-name="infinity" unicode="&#x221e;" horiz-adv-x="820" 
d="M188 171c-64 0 -118 32 -151 83c-52 42 -81 114 -73 195l1 4c13 127 117 232 232 232h115c45 0 86 -17 119 -46c39 29 84 46 129 46h115c64 0 118 -32 150 -83c52 -42 81 -113 73 -194l-1 -4c-13 -129 -116 -233 -231 -233h-115c-45 0 -87 16 -119 46
c-38 -30 -84 -46 -129 -46h-115zM231 425c23 0 45 1 44 2c8 2 14 5 20 8h-18h-57c-2 0 -7 -4 -9 -10h20zM226 380c-28 0 -57 1 -57 1c-30 0 -52 29 -48 67l1 10c4 37 31 67 62 67h57h32c41 -4 78 -39 78 -70c0 0 -3 -55 -67 -71c-9 -3 -33 -4 -58 -4zM267 261
c50 0 98 26 131 66c26 -41 67 -66 117 -66h115c90 0 171 84 182 188l1 4c10 102 -53 187 -143 187h-115c-50 0 -96 -26 -131 -66c-25 40 -67 66 -117 66h-115c-90 0 -172 -85 -182 -187l-1 -4c-11 -104 53 -188 143 -188h115zM581 380c-25 0 -48 1 -57 4
c-52 14 -52 56 -50 69c3 31 49 68 91 72h32h57c31 0 52 -30 48 -67l-1 -10c-4 -38 -31 -67 -62 -67c0 0 -29 -1 -58 -1zM586 425h25c23 1 37 1 42 10v0h-20h-29c-8 -1 -17 -5 -25 -10h7z" />
    <glyph glyph-name="integral" unicode="&#x222b;" horiz-adv-x="820" 
d="M96 -93c-39 0 -72 23 -87 56c-31 18 -50 53 -46 92l3 25c6 56 58 103 114 103h99l272 655c21 49 71 85 122 85h194c39 0 71 -23 86 -56c31 -17 50 -52 46 -92l-3 -25c-6 -56 -57 -102 -113 -102h-100l-270 -656c-21 -48 -67 -81 -119 -85h-198zM256 -3c33 3 63 24 75 53
l284 688h133c31 0 60 26 63 57l3 25c3 31 -20 58 -51 58h-194c-31 0 -64 -23 -76 -53l-286 -687h-132c-31 0 -61 -27 -64 -58l-3 -25c-3 -31 21 -58 52 -58h196z" />
    <glyph glyph-name="less" unicode="&#x3c;" horiz-adv-x="470" 
d="M321 138c-25 0 -50 11 -68 28l-160 176c-1 2 -3 3 -4 5l-36 40c-15 18 -21 43 -18 71c3 26 17 55 36 73l195 179c21 19 51 30 77 30c21 0 42 -8 58 -20l21 -19c5 -7 10 -14 14 -22c2 -2 3 -3 5 -4l21 -19c17 -20 26 -48 23 -75c-3 -26 -18 -55 -38 -73l-103 -94l41 -44
c1 -2 2 -3 3 -5l37 -40c15 -18 24 -48 21 -75c-2 -24 -18 -54 -35 -71l-19 -16c-21 -16 -47 -25 -71 -25zM286 228c15 0 30 6 43 17l13 11c10 10 18 27 19 39c1 15 -3 33 -12 43l-109 121l138 126c13 11 20 28 22 41c1 15 -3 30 -13 42l-11 10c-10 11 -24 17 -38 17
c-15 0 -31 -6 -44 -17l-194 -178c-12 -12 -19 -29 -20 -42c-2 -18 1 -34 12 -44l156 -170c9 -10 24 -16 38 -16z" />
    <glyph glyph-name="lessequal" unicode="&#x2264;" horiz-adv-x="470" 
d="M122 -50c-38 0 -68 21 -80 54c-30 14 -49 47 -45 86l3 25c6 52 52 95 104 95h102l-118 130c-1 1 -2 2 -2 3l-39 42c-13 18 -18 41 -15 68c2 26 16 55 35 73l196 180c23 18 51 29 77 29c23 0 47 -9 64 -25l15 -15c5 -6 10 -13 13 -21c5 -2 8 -6 12 -9l15 -15
c17 -20 26 -48 24 -74c-3 -25 -19 -54 -39 -73l-103 -93l41 -45c2 -2 4 -4 5 -6l36 -39c15 -18 24 -48 21 -75c-3 -24 -18 -55 -37 -72l-1 -1c4 -5 7 -10 9 -16c30 -16 49 -49 45 -86l-2 -25c-6 -54 -51 -95 -105 -95h-231zM317 40c29 0 52 21 55 50l3 25
c3 26 -18 50 -45 50h-231c-28 0 -51 -24 -54 -50l-3 -25c-3 -29 16 -50 44 -50h231zM282 223c15 0 31 6 43 17l14 11c10 10 18 27 19 39c2 15 -2 33 -11 43l-110 121l138 126c12 11 21 28 22 41c2 15 -4 30 -13 42l-10 10c-10 11 -24 17 -38 17c-15 0 -31 -6 -45 -17
l-194 -178c-12 -12 -19 -29 -20 -42c-2 -18 1 -34 13 -44l154 -170c10 -10 24 -16 38 -16z" />
    <glyph glyph-name="logicalnot" unicode="&#xac;" horiz-adv-x="820" 
d="M720 -89c-36 0 -65 22 -74 53c-30 13 -49 44 -45 80l4 42h-345c-35 0 -62 21 -72 52c-30 13 -48 43 -44 78l5 47c5 47 47 85 94 85h521c36 0 64 -21 72 -52c26 -11 43 -35 45 -64c1 -6 2 -12 1 -18l-23 -215c-5 -49 -48 -88 -98 -88h-41zM725 1c25 0 46 19 49 43l23 215
c0 1 0 4 -2 6c1 21 -13 38 -36 38h-521c-22 0 -42 -18 -44 -40l-5 -47c-2 -22 14 -40 36 -40h435l-14 -132c-3 -24 15 -43 38 -43h41z" />
    <glyph glyph-name="minus" unicode="&#x2212;" horiz-adv-x="423" 
d="M116 306c-34 0 -61 21 -70 51c-30 13 -48 43 -44 78l7 64c5 46 46 84 92 84h250c35 0 62 -21 72 -51c29 -13 47 -43 43 -78l-7 -64c-4 -45 -48 -84 -93 -84h-250zM331 396c20 0 41 18 43 39l7 64c2 21 -13 39 -35 39h-250c-21 0 -40 -18 -42 -39l-7 -64
c-2 -21 13 -39 34 -39h250z" />
    <glyph glyph-name="multiply" unicode="&#xd7;" horiz-adv-x="383" 
d="M121 243c-21 0 -42 9 -57 23l-9 8c-5 7 -9 15 -13 23c-6 4 -13 9 -18 14l-9 8c-13 17 -20 40 -18 62c3 22 15 46 31 61l41 37l-32 35c-12 18 -19 40 -16 60c2 20 14 44 30 60l8 7c17 16 40 25 64 25c22 0 42 -8 56 -22l33 -36l36 33c17 15 42 24 63 24
c24 0 47 -10 60 -27l5 -5c6 -6 11 -14 14 -23c9 -4 16 -10 22 -17l4 -5c14 -15 22 -37 20 -60c-3 -22 -13 -42 -28 -58l-40 -36l32 -36c13 -15 20 -38 18 -60c-3 -22 -13 -44 -28 -59l-9 -10c-20 -15 -45 -25 -65 -25c-22 0 -43 9 -59 24l-32 36l-41 -37
c-17 -15 -42 -24 -63 -24zM85 333c11 0 23 5 31 12l76 68l60 -67c7 -7 16 -12 28 -12c10 0 22 5 32 12l6 7c8 8 13 18 14 30c2 10 -1 21 -8 28l-60 68l70 64c10 8 15 18 16 30c2 10 -1 21 -10 28l-5 7c-7 8 -18 12 -29 12c-10 0 -21 -4 -31 -12l-69 -63l-59 64
c-7 9 -19 12 -29 12c-11 0 -21 -3 -31 -12l-6 -6c-8 -8 -14 -19 -15 -29c-2 -11 2 -21 8 -30l59 -65l-77 -69c-7 -7 -13 -19 -14 -29c-1 -11 2 -21 8 -30l6 -6c8 -7 17 -12 29 -12z" />
    <glyph glyph-name="notequal" unicode="&#x2260;" horiz-adv-x="470" 
d="M142 158c-11 0 -22 3 -32 8l-30 19l-1 1c-12 8 -20 20 -24 35l-15 9l-1 1c-19 13 -29 37 -27 62c2 13 7 26 14 37c4 4 12 7 27 8c-1 1 -2 3 -2 4c-27 11 -45 40 -42 72l2 16c2 21 12 40 26 54c-10 13 -16 30 -14 50l1 17c5 42 42 77 84 77h145l66 86c15 20 38 32 61 32h4
c20 -1 30 -10 46 -20l12 -7c12 -8 21 -21 25 -36c1 -1 2 -1 3 -2l12 -7c20 -13 30 -38 28 -63c-1 -9 -4 -19 -9 -28h-29c1 -1 0 -3 1 -5c28 -10 46 -39 43 -72l-2 -17c-2 -20 -12 -39 -28 -52c11 -13 17 -32 15 -52l-2 -16c-4 -41 -42 -76 -83 -76h-134l-76 -101
c-16 -21 -41 -34 -64 -34zM107 248c8 0 17 5 23 13l93 122h158c17 0 31 15 33 31l2 16c2 18 -10 31 -27 31h-107l34 44h80c16 0 31 13 33 29l1 17c2 17 -10 32 -26 32h-29l43 57c3 5 6 10 6 16c1 9 -2 19 -9 24l-24 15c-5 4 -10 6 -16 6c-9 0 -16 -5 -22 -12l-80 -106h-169
c-17 0 -33 -15 -35 -32l-1 -17c-2 -16 11 -29 28 -29h117l-33 -44h-91c-17 0 -31 -13 -33 -31l-2 -16c-2 -16 10 -31 27 -31h39l-56 -74c-5 -5 -6 -11 -7 -16c-1 -9 2 -19 10 -24l23 -15c5 -4 10 -6 17 -6z" />
    <glyph glyph-name="partialdiff" unicode="&#x2202;" horiz-adv-x="633" 
d="M279 -96c-28 0 -55 5 -77 14c-42 15 -75 42 -99 78c-59 49 -89 132 -79 227c4 41 16 83 34 122c60 128 179 215 297 215c17 0 35 -2 52 -6c-2 25 -9 47 -20 68c-34 26 -81 46 -139 60c-27 7 -47 26 -56 50c-30 15 -48 47 -44 83c1 14 7 32 15 44l23 33c19 22 49 37 77 37
c11 0 18 -1 25 -3c54 -16 174 -50 254 -156c73 -69 130 -180 111 -364c-8 -76 -29 -159 -61 -248c-5 -15 -10 -29 -16 -41c-61 -126 -180 -213 -297 -213zM258 104c-56 0 -86 59 -78 130c1 14 4 27 8 41c23 75 80 130 132 130c5 0 10 0 15 -1c43 -9 87 -26 80 -93
c-2 -21 -8 -46 -23 -77c-31 -73 -82 -130 -134 -130zM266 149c25 3 60 42 85 100c11 22 17 41 19 62v2c-3 1 -6 1 -9 2h-6c-29 0 -67 -41 -84 -94v0c-3 -10 -5 -20 -6 -32c-1 -15 -1 -28 1 -40zM321 360v0zM361 315v0zM244 -6c95 0 198 72 251 186c6 10 10 21 14 33
c33 91 51 170 59 238c35 339 -209 405 -298 432c-3 1 -7 1 -12 1c-16 0 -34 -10 -42 -25l-16 -21c-3 -7 -6 -15 -7 -23c-2 -20 9 -39 29 -44c214 -50 238 -172 230 -252c-1 -11 -3 -23 -4 -31c-11 6 -21 12 -34 16c-20 7 -41 11 -64 11c-96 0 -198 -72 -251 -185
c-17 -36 -27 -72 -30 -107c-11 -100 30 -188 112 -218c20 -8 41 -11 63 -11z" />
    <glyph glyph-name="percent" unicode="%" horiz-adv-x="695" 
d="M517 -99c-40 0 -77 17 -100 46c-6 6 -8 12 -10 18c-12 7 -22 16 -31 27c-14 18 -12 37 1 57c0 1 5 7 11 14v2c-19 -20 -38 -26 -40 -11c-2 10 -3 21 -3 31l-81 -139l-1 -1c-13 -22 -34 -36 -56 -36h-116c-27 0 -47 19 -53 46c-27 6 -44 34 -40 68c0 4 2 19 9 32l226 389
h-10c-39 0 -76 17 -100 45c-5 6 -8 12 -9 19c-12 7 -23 16 -32 26c-14 17 -12 36 0 56c1 1 6 8 12 15v2c-19 -20 -38 -26 -40 -11c-3 13 -3 27 -2 40l16 152c5 50 37 98 85 127c23 12 51 19 76 19h15c50 0 95 -26 118 -69c18 -12 32 -28 42 -48c7 -16 11 -38 11 -59l72 124
l1 1c13 23 34 38 56 40h120c28 0 49 -20 55 -47c26 -7 45 -35 41 -67c-1 -9 -4 -19 -9 -27l-228 -391h15c50 0 95 -26 117 -68c18 -12 32 -28 42 -48c10 -18 14 -45 11 -74l-14 -151v-1c-5 -51 -39 -102 -88 -128c-26 -13 -51 -20 -74 -20h-15zM418 4c0 1 1 3 2 4
c-2 -3 -4 -5 -2 -4zM377 49c-1 -1 0 1 3 4c-1 -1 -3 -3 -3 -4zM82 590c0 -2 0 0 4 5c-2 -2 -3 -4 -4 -5zM122 545c2 1 3 3 4 5c-4 -5 -4 -7 -4 -5zM496 -9c17 0 34 5 52 14c34 19 57 54 61 89l14 152c2 19 1 37 -7 50c-15 32 -48 50 -83 50h-15c-17 0 -35 -3 -52 -12
c-33 -20 -55 -54 -59 -89l-16 -151c-2 -19 1 -36 10 -51h-1c13 -32 45 -52 81 -52h15zM496 70c-14 0 -23 11 -22 26l16 150c1 13 12 23 27 23h1c14 0 23 -10 22 -23l-16 -150c-1 -15 -15 -26 -27 -26h-1zM171 -1c5 0 11 5 14 11l486 833c2 3 3 7 4 11c1 12 -6 24 -16 24
h-110c-9 2 -17 -5 -23 -15l-480 -827c-2 -3 -3 -8 -3 -13c-2 -13 3 -24 12 -24h116zM202 534c16 0 34 4 52 14c33 18 56 53 60 88l15 153c2 19 0 36 -7 50c-15 31 -47 50 -82 50h-15c-17 0 -36 -4 -53 -13c-33 -20 -55 -53 -59 -88l-16 -152c-2 -18 1 -36 10 -51h-1
c13 -31 45 -51 81 -51h15zM202 613c-13 0 -24 11 -23 26l16 150c1 12 12 22 27 22h2c13 0 22 -10 21 -22l-16 -150c-1 -15 -13 -26 -25 -26h-2z" />
    <glyph glyph-name="perthousand" unicode="&#x2030;" horiz-adv-x="995" 
d="M802 -103c-39 0 -75 17 -100 45c-4 6 -7 13 -9 19c-9 6 -18 12 -25 19c-15 -24 -38 -45 -63 -59c-25 -13 -51 -20 -74 -20h-15c-40 0 -77 17 -100 46c-6 6 -8 12 -9 18c-13 7 -23 16 -32 27c-14 18 -12 37 1 57c1 1 5 7 11 14v2c-19 -20 -38 -26 -40 -11
c-2 10 -3 21 -3 31l-80 -139l-2 -1c-13 -22 -34 -36 -56 -36h-116c-27 0 -47 19 -52 46c-28 6 -45 34 -41 68c0 4 2 19 9 32l238 409h-15c-39 0 -76 17 -100 45c-5 6 -8 12 -9 19c-11 7 -23 16 -31 26c-15 17 -13 36 -1 56c1 1 6 8 12 15v2c-19 -20 -38 -26 -40 -11
c-3 13 -3 27 -2 40l16 152c5 50 38 98 86 127c22 12 51 19 76 19h15c50 0 94 -26 117 -69c18 -12 32 -28 42 -48c8 -18 13 -43 11 -67l65 112l1 1c14 23 34 38 56 40h120c28 0 49 -20 55 -47c27 -7 45 -35 41 -67c-1 -9 -4 -19 -9 -27l-228 -391h15c50 0 96 -26 117 -68
c7 -4 12 -9 17 -14c15 24 36 45 61 60c24 12 52 19 77 19h15c49 0 93 -26 116 -68c18 -12 32 -29 42 -48c11 -20 15 -47 12 -74l-15 -153c-5 -51 -40 -102 -87 -128c-27 -13 -53 -20 -75 -20h-15zM417 4c0 1 1 3 2 4c-2 -3 -3 -5 -2 -4zM376 49c-1 -1 1 1 3 4
c-1 -1 -2 -3 -3 -4zM88 610c0 -2 0 0 4 5c-1 -2 -3 -4 -4 -5zM129 565c1 1 2 3 3 5c-3 -5 -4 -7 -3 -5zM495 -9c17 0 34 5 52 14c34 19 57 54 61 89l14 152c2 19 1 37 -7 50c-15 32 -47 50 -82 50h-15c-17 0 -36 -3 -53 -12c-33 -20 -55 -54 -59 -89l-16 -151
c-2 -19 1 -36 10 -51h-1c13 -32 45 -52 81 -52h15zM496 70c-14 0 -24 11 -23 26l16 150c2 13 13 23 28 23h1c14 0 23 -10 21 -23l-16 -150c-1 -15 -14 -26 -26 -26h-1zM701 -4c1 3 2 5 5 7c-7 -9 -7 -10 -5 -7zM661 41c1 3 2 5 4 7c-7 -9 -7 -10 -4 -7zM170 -1
c5 0 11 5 14 11l486 833c2 3 4 7 4 11c1 12 -5 24 -15 24h-110c-10 2 -18 -5 -24 -15l-480 -827c-2 -3 -3 -8 -3 -13c-2 -13 3 -24 12 -24h116zM209 554c16 0 33 4 51 14c33 18 57 53 60 88l15 153c2 19 0 36 -6 50c-16 31 -48 50 -83 50h-15c-17 0 -36 -4 -53 -13
c-33 -20 -55 -53 -59 -88l-16 -152c-2 -18 1 -36 10 -51h-1c14 -31 46 -51 82 -51h15zM208 633c-13 0 -24 11 -22 26l15 150c2 12 13 22 28 22h2c13 0 22 -10 20 -22l-15 -150c-2 -15 -14 -26 -26 -26h-2zM782 -13c16 0 32 5 51 14c33 19 57 54 61 89l15 153
c2 18 0 36 -8 50c-16 31 -47 50 -82 50h-15c-18 0 -35 -4 -53 -13c-33 -20 -56 -54 -59 -89l-16 -151c-2 -19 1 -36 9 -51h-1c15 -31 46 -52 83 -52h15zM781 66c-14 0 -24 12 -22 27l16 150c1 12 12 22 27 22h1c14 0 23 -10 22 -22l-16 -150c-2 -15 -14 -27 -27 -27h-1z" />
    <glyph glyph-name="plus" unicode="+" horiz-adv-x="633" 
d="M285 123c-35 0 -60 20 -67 50c-29 10 -46 37 -42 72l6 60h-41c-33 0 -61 22 -69 51c-27 11 -45 38 -42 68l8 81c4 40 46 76 87 76h86l10 93c5 44 41 75 85 75h86c34 0 60 -21 68 -50c27 -11 45 -38 41 -70l-5 -48h42c34 0 61 -21 68 -50c29 -11 46 -39 43 -71l-9 -81
c-4 -42 -42 -74 -86 -74h-87l-11 -105c-5 -45 -40 -77 -85 -77h-86zM336 213c19 0 33 12 35 32l16 150h132c20 0 34 13 36 29l8 81c2 16 -9 31 -29 31h-132l14 138c2 16 -10 30 -29 30h-86c-19 0 -33 -11 -35 -30l-14 -138h-131c-16 0 -36 -15 -38 -31l-8 -81
c-2 -15 15 -29 31 -29h131l-16 -150c-2 -20 10 -32 29 -32h86z" />
    <glyph glyph-name="at" unicode="@" horiz-adv-x="1220" 
d="M511 -219c-141 0 -261 62 -339 164c-105 102 -162 261 -142 444c35 340 338 614 679 614c182 0 331 -68 419 -183c72 -69 116 -160 127 -268c0 0 5 -55 -3 -132c-23 -218 -123 -374 -287 -441c-51 -19 -103 -30 -146 -30c-73 0 -130 30 -167 86c-15 13 -30 28 -41 46
c-3 -2 -7 -3 -12 -4c-18 -3 -37 -4 -54 -4c-79 0 -137 31 -172 87c-59 47 -88 132 -76 244c1 3 1 5 1 8c-6 -22 -11 -45 -13 -68c-10 -93 12 -175 54 -235c46 -41 106 -64 174 -64c17 0 32 1 44 3l8 1h4c31 0 53 -19 57 -47c28 -8 45 -33 41 -65c-3 -29 -7 -56 -11 -86
c-5 -35 -35 -62 -70 -64c-23 -3 -49 -6 -75 -6zM553 341c14 0 31 3 52 10c2 1 4 2 4 3l22 114c-21 -1 -41 -16 -60 -49c-9 -13 -16 -38 -19 -61c0 -6 -1 -12 0 -17h1zM548 296c-72 0 -86 54 -81 107c4 32 15 65 26 82c34 56 72 73 104 73c18 0 33 -4 45 -10
c27 -12 40 -40 36 -69l-24 -129c-2 -17 -19 -34 -38 -41c-27 -9 -50 -13 -68 -13zM475 -129c24 0 49 3 72 6c2 0 22 2 24 20c4 30 8 57 11 85c1 13 -5 22 -18 22h-4c-17 -3 -35 -4 -52 -4c-195 0 -332 166 -308 389c24 232 235 432 476 440c182 6 303 -74 345 -216
c0 -2 0 -2 1 -3c10 -37 17 -76 14 -120c1 -12 0 -25 -2 -39c-9 -90 -42 -188 -112 -242c-12 -6 -20 -13 -28 -19c-17 -7 -36 -12 -57 -16c-47 -1 -50 50 -47 74v1l70 372c6 35 -18 64 -53 62l-49 -3c-12 0 -18 -6 -26 -12c-5 -5 -10 -8 -16 -8c-3 0 -7 1 -10 3
c-28 15 -67 28 -111 28c-68 0 -146 -35 -215 -155c-17 -30 -32 -80 -38 -132c-12 -113 19 -241 168 -241c29 0 61 5 99 15c10 2 23 0 25 -13c4 -16 4 -35 13 -51c29 -50 76 -75 137 -75c38 0 81 9 128 27c188 77 241 269 255 399c7 68 3 118 3 125
c-22 216 -201 368 -466 368c-320 0 -597 -258 -629 -569c-32 -298 149 -518 400 -518zM881 234c5 3 11 8 19 12c132 131 101 379 42 426c-55 47 -132 70 -230 67c-21 -1 -43 -3 -64 -7c24 -5 47 -12 68 -22c9 6 23 13 39 15l53 3c43 2 77 -21 91 -56c34 -17 54 -56 46 -99z
M703 700c1 0 1 0 1 1c0 -1 0 -1 -1 -1zM741 696c-3 3 -7 6 -12 8c4 -3 8 -5 12 -8z" />
    <glyph glyph-name="ampersand" unicode="&#x26;" horiz-adv-x="774" 
d="M126 -114c-31 0 -56 20 -60 48c-26 8 -44 32 -41 60l8 71c3 35 36 63 73 63h72c-3 4 -6 8 -8 12c-47 36 -72 94 -70 167c4 81 42 160 99 203c5 3 9 7 15 10c0 0 33 -21 31 -17c-22 39 -34 79 -33 109c0 10 1 19 2 26c3 27 10 51 22 72h-18c-31 0 -56 20 -60 48
c-27 8 -44 32 -41 60l7 71c4 35 37 63 74 63h496c31 0 55 -20 59 -48c26 -8 44 -32 41 -60l-8 -71c-3 -35 -36 -63 -72 -63h-132c22 -26 34 -62 34 -107c0 0 1 -6 0 -15c-2 -14 -5 -29 -10 -45c34 -4 57 -22 61 -49c29 -10 44 -34 41 -65c-2 -15 -9 -34 -19 -50
c-7 -11 -15 -23 -23 -34c-26 -39 -64 -63 -61 -43l-4 6l-11 -107c27 7 44 4 48 -10c1 -8 2 -15 2 -22c-1 -4 -1 -8 -2 -11c22 4 37 1 40 -12c1 -8 3 -15 2 -22c-2 -17 -8 -30 -19 -39c0 -2 1 -3 0 -5c27 -8 44 -32 41 -60l-7 -71c-4 -35 -37 -63 -73 -63h-496zM586 -24
c11 0 22 8 23 18l8 71c1 10 -8 18 -19 18h-496c-12 0 -23 -8 -24 -18l-8 -71c-1 -10 8 -18 20 -18h496zM340 280c1 -1 1 -2 2 -3zM314 251c-41 0 -65 29 -60 73c7 49 47 92 79 89c2 0 5 -8 10 -19l38 -90c2 -4 3 -9 3 -11c-1 -3 -2 -4 -2 -5c-14 -23 -39 -37 -68 -37z
M303 145c64 0 119 26 152 68l23 -42c10 -16 21 -20 33 -20c8 0 17 2 25 2h2c40 1 56 5 57 16c0 5 -2 11 -6 19v-2l-66 138c29 37 61 77 88 121c7 11 11 21 12 29c1 16 -11 25 -36 25c-3 0 -10 -1 -15 -1l-30 -5c-13 -3 -26 -10 -35 -28v1c-15 -20 -24 -33 -33 -43l-29 58
c-2 5 0 10 5 14c12 11 24 20 33 31v-1c23 24 44 71 47 108c1 5 1 10 1 13c-2 75 -43 114 -118 114c-90 0 -146 -45 -154 -122c-1 -7 -1 -14 -1 -22c-2 -25 10 -57 27 -87l11 -18c-31 -8 -51 -20 -72 -36c-46 -34 -76 -100 -78 -165c-5 -140 103 -165 157 -165zM487 507v0v0z
M528 462v0v0zM390 571c-10 8 -31 34 -28 64c2 26 22 39 39 39c18 0 34 -11 35 -34c1 -5 0 -11 0 -16c-3 -23 -12 -41 -37 -53c0 0 -6 -1 -9 0zM678 800c11 0 22 8 23 18l7 71c1 10 -8 18 -19 18h-496c-12 0 -23 -8 -24 -18l-7 -71c-1 -10 8 -18 20 -18h496z" />
    <glyph glyph-name="paragraph" unicode="&#xb6;" horiz-adv-x="820" 
d="M398 -91c-35 0 -62 21 -71 51c-29 12 -46 41 -43 76l30 280c-53 21 -97 56 -128 99c-60 53 -93 130 -84 214c16 157 172 286 345 290c4 1 8 1 12 1h42c25 0 47 -12 60 -31c17 19 41 31 67 31h41c34 0 61 -21 71 -51c27 -13 46 -42 43 -76l-85 -802
c-4 -45 -46 -82 -90 -82h-41c-26 0 -48 12 -61 31c-17 -19 -41 -31 -66 -31h-42zM404 -1c18 0 38 16 40 37l85 802c2 21 -15 37 -33 37h-42c-2 0 -3 0 -6 -1c-151 -1 -287 -111 -301 -245c-13 -124 85 -228 219 -244l-37 -349c-2 -21 12 -37 33 -37h42zM572 -1
c19 0 39 16 41 37l85 802c2 21 -15 37 -34 37h-41c-21 0 -38 -16 -40 -37l-85 -802c-2 -21 12 -37 33 -37h41z" />
    <glyph glyph-name="copyright" unicode="&#xa9;" horiz-adv-x="1020" 
d="M492 -85c-144 0 -267 64 -346 165c-90 88 -141 217 -126 361c28 265 267 482 533 482c143 0 265 -64 343 -164c91 -89 142 -219 127 -363c-28 -265 -266 -481 -531 -481zM338 186l-6 6c-1 2 -3 3 -4 4c-49 43 -74 108 -67 177l12 115c-13 -29 -21 -60 -24 -92
c-8 -68 10 -130 44 -179c14 -12 28 -22 45 -31zM462 108c-184 0 -318 150 -299 333c20 184 185 333 369 333c185 0 318 -149 298 -333c-19 -183 -183 -333 -368 -333zM472 196c16 0 35 3 55 8c46 14 85 41 112 81c16 26 28 56 31 90c2 14 -9 26 -23 26h-63
c-13 0 -26 -13 -28 -28v-4c-4 -38 -39 -70 -79 -70h-2c-39 0 -66 32 -62 72l16 149c4 40 38 71 77 71h2c40 0 68 -30 64 -71l-1 -2c-1 -15 9 -29 22 -29h63c14 0 28 12 29 26l1 4c3 32 -3 61 -13 87c-16 33 -43 59 -77 73h-1c-31 10 -56 14 -80 14c-52 0 -83 -19 -83 -19v1
c-6 -4 -10 -4 -12 -5c-54 -32 -92 -89 -98 -151l-16 -146c-6 -63 20 -119 67 -152c12 -5 25 -12 36 -15c14 -5 37 -10 63 -10zM456 5c240 0 456 196 481 436c26 240 -149 437 -389 437c-241 0 -457 -197 -483 -437c-25 -240 150 -436 391 -436zM501 351c5 4 9 11 10 18v4
c4 32 29 61 59 70c0 2 -1 3 -1 4c-21 8 -37 27 -42 50c-7 -5 -12 -12 -13 -22zM756 339c15 32 26 66 29 102c7 68 -9 131 -44 180c-12 10 -25 20 -38 28v0c22 -18 40 -41 52 -67c13 -35 19 -73 16 -108l-1 -4c-3 -32 -28 -59 -58 -68c1 -1 2 -3 2 -5c25 -8 41 -31 42 -58z
" />
    </font>
</defs>
</svg>
