<?xml version="1.0" encoding="iso-8859-1"?>

<!DOCTYPE svg PUBLIC "-//W3C//DTD SVG 1.1//EN" "http://www.w3.org/Graphics/SVG/1.1/DTD/svg11.dtd">
<!-- Uploaded to: SVG Repo, www.svgrepo.com, Generator: SVG Repo Mixer Tools -->
<svg fill="#000000" version="1.1" id="Layer_1" xmlns="http://www.w3.org/2000/svg" xmlns:xlink="http://www.w3.org/1999/xlink" 
	 width="800px" height="800px" viewBox="0 0 61.525 53.438"
	 xml:space="preserve">
<g>
	<path d="M8.908,16.403h43.708c1.236,0,2.241-1.001,2.241-2.231V9.709c0-1.234-1.005-2.229-2.241-2.229H8.908
		c-1.238,0-2.242,0.994-2.242,2.229v4.463C6.666,15.402,7.669,16.404,8.908,16.403z"/>
	<path d="M49.255,6.025c0.744,0,1.346-0.599,1.346-1.34V1.34C50.6,0.602,49.999,0,49.255,0c-0.74,0-1.347,0.603-1.347,1.34v3.346
		C47.908,5.427,48.514,6.025,49.255,6.025z"/>
	<path d="M43.09,6.025c0.744,0,1.346-0.599,1.346-1.34V1.34c0-0.737-0.602-1.34-1.346-1.34c-0.745,0-1.346,0.603-1.346,1.34v3.346
		C41.744,5.427,42.344,6.025,43.09,6.025z"/>
	<path d="M8.908,28.11h43.708c1.236,0,2.241-0.994,2.241-2.229v-4.463c0-1.229-1.005-2.23-2.241-2.23H8.908
		c-1.238,0-2.242,1.001-2.242,2.23v4.463C6.666,27.116,7.669,28.111,8.908,28.11z"/>
	<path d="M30.761,6.025c0.743,0,1.345-0.599,1.345-1.34V1.34c0-0.737-0.601-1.34-1.345-1.34s-1.345,0.603-1.345,1.34v3.346
		C29.417,5.427,30.017,6.025,30.761,6.025z"/>
	<path d="M12.27,6.025c0.739,0,1.345-0.599,1.345-1.34V1.34C13.615,0.602,13.01,0,12.27,0c-0.745,0-1.346,0.603-1.346,1.34v3.346
		C10.925,5.427,11.525,6.025,12.27,6.025z"/>
	<path d="M60.18,30.681H1.344C0.601,30.681,0,31.278,0,32.021c0,0.734,0.602,1.338,1.345,1.338h4.793
		c-0.024,0.106-0.032,0.217-0.032,0.329v1.678c0,1.232,1.192,2.232,2.668,2.232h12.688c2.777,2.376,7.225,7.116,7.332,13.16h-4.196
		c-0.743,0-1.346,0.599-1.346,1.341c0,0.734,0.602,1.337,1.346,1.337h13.449c0.743,0,1.346-0.603,1.346-1.337
		c0-0.742-0.602-1.341-1.346-1.341H32.73c0.106-6.044,4.555-10.784,7.328-13.16H52.75c1.477,0,2.667-1,2.667-2.232v-1.678
		c0-0.112-0.009-0.223-0.03-0.329h4.794c0.742,0,1.345-0.604,1.345-1.338C61.525,31.278,60.923,30.681,60.18,30.681z"/>
	<path d="M18.433,6.025c0.745,0,1.345-0.599,1.345-1.34V1.34c0-0.737-0.601-1.34-1.345-1.34s-1.346,0.603-1.346,1.34v3.346
		C17.088,5.427,17.688,6.025,18.433,6.025z"/>
	<path d="M36.926,6.025c0.743,0,1.346-0.599,1.346-1.34V1.34c0-0.737-0.603-1.34-1.346-1.34c-0.742,0-1.345,0.603-1.345,1.34v3.346
		C35.581,5.427,36.183,6.025,36.926,6.025z"/>
	<path d="M24.597,6.025c0.743,0,1.345-0.599,1.345-1.34V1.34c0-0.737-0.601-1.34-1.345-1.34c-0.743,0-1.346,0.603-1.346,1.34v3.346
		C23.252,5.427,23.854,6.025,24.597,6.025z"/>
</g>
</svg>