<?xml version="1.0" encoding="iso-8859-1"?>
<!-- Uploaded to: SVG Repo, www.svgrepo.com, Generator: SVG Repo Mixer Tools -->
<svg fill="#000000" height="800px" width="800px" version="1.1" id="Layer_1" xmlns="http://www.w3.org/2000/svg" xmlns:xlink="http://www.w3.org/1999/xlink" 
	 viewBox="0 0 511.997 511.997" xml:space="preserve">
<g>
	<g>
		<path d="M490.131,85.662l-92.637-81.2c-4.588-4.021-10.905-5.443-16.773-3.778c-5.87,1.667-10.495,6.195-12.285,12.028
			l-60.102,195.839H164.256l-7.809-49.257c11.702,0.093,22.44,3.091,30.764,8.245c2.263,1.401,5.196,0.931,6.915-1.101
			c8.435-9.972,22.139-17.623,38.393-20.2c10.762-1.706,21.148-0.95,30.161,1.751c1.912,0.572,3.983,0.038,5.377-1.39
			c1.394-1.428,1.877-3.509,1.261-5.408c-17.877-55.086-71.237-91.78-129.693-88.006l-2.131-13.439
			c-1.038-6.542-7.175-11.003-13.724-9.968c-6.542,1.037-11.005,7.182-9.967,13.724l2.131,13.438
			c-56.758,14.491-96.151,65.89-96.114,123.804c0.001,1.994,1.108,3.822,2.874,4.748c1.766,0.926,3.902,0.797,5.541-0.338
			c7.736-5.356,17.379-9.287,28.14-10.993c16.258-2.577,31.658,0.462,42.765,7.337c2.263,1.401,5.196,0.931,6.915-1.101
			c6.322-7.474,15.605-13.644,26.702-17.351l7.213,45.5H99.035c-10.488,0-19.504,7.478-21.41,17.791
			c-3.287,17.785-5.032,36.385-5.032,55.534c0,127.093,76.807,230.123,171.554,230.123s171.555-103.029,171.555-230.123
			c0-19.149-1.746-37.749-5.032-55.534c-1.91-10.336-10.9-17.791-21.41-17.791h-43.286L394.68,49.84l71.734,62.88
			c2.493,2.186,6.286,1.936,8.471-0.558l15.804-18.029C492.874,91.64,492.625,87.846,490.131,85.662z"/>
	</g>
</g>
</svg>