<?xml version="1.0" encoding="iso-8859-1"?>
<!-- Uploaded to: SVG Repo, www.svgrepo.com, Generator: SVG Repo Mixer Tools -->
<svg fill="#000000" height="800px" width="800px" version="1.1" id="Layer_1" xmlns="http://www.w3.org/2000/svg" xmlns:xlink="http://www.w3.org/1999/xlink" 
	 viewBox="0 0 512.002 512.002" xml:space="preserve">
<g>
	<g>
		<path d="M452.375,108.626c4.754-4.754,6.176-11.904,3.604-18.116c-2.573-6.212-8.635-10.262-15.358-10.262h-65.538
			c2.806-19.085-2.068-36.986-13.038-48.704l3.532-8.602c3.488-8.492-0.57-18.205-9.063-21.691
			c-8.491-3.489-18.203,0.571-21.691,9.063l-3.164,7.707c-0.214-0.003-0.428-0.014-0.643-0.014
			c-22.496,0-44.326,17.275-54.321,42.987c-2.455,6.315-4.056,12.81-4.801,19.257H71.381c-6.724,0-12.786,4.051-15.358,10.262
			s-1.15,13.362,3.604,18.116l179.75,179.75v128.635l-66.61,66.61c-4.754,4.754-6.176,11.904-3.604,18.116
			c2.573,6.212,8.635,10.262,15.358,10.262h142.96c6.724,0,12.785-4.05,15.358-10.262c2.572-6.212,1.15-13.362-3.604-18.116
			l-66.61-66.61V288.376L452.375,108.626z M317.336,140.421c17.009-0.443,33.525-10.692,44.709-26.926h38.444l-48.309,48.309
			h-43.624L317.336,140.421z M272.616,161.804H159.822l-48.309-48.309h164.956c2.51,5.622,5.901,10.549,9.984,14.614
			L272.616,161.804z"/>
	</g>
</g>
</svg>