<?xml version="1.0" encoding="iso-8859-1"?>
<!-- Uploaded to: SVG Repo, www.svgrepo.com, Generator: SVG Repo Mixer Tools -->
<svg fill="#000000" height="800px" width="800px" version="1.1" id="Layer_1" xmlns="http://www.w3.org/2000/svg" xmlns:xlink="http://www.w3.org/1999/xlink" 
	 viewBox="0 0 512.023 512.023" xml:space="preserve">
<g>
	<g>
		<path d="M484.101,112.578L417.37,48.876c-6.827-6.784-16.107-9.856-25.237-8.597c-9.429,1.216-17.579,6.613-22.144,14.485
			l-36.693,60.459l-16.107-4.032l-1.28-0.277c-20.267-3.776-41.408-5.696-62.827-5.696c-36.075,0-68.971,5.141-96.725,14.037
			l-11.179-21.099c5.952,2.517,12.928,2.496,18.944-1.003c6.848-3.947,10.688-11.115,10.667-18.496v-0.811
			c1.728,1.109,3.648,1.877,5.611,2.432c0.32,0.107,0.64,0.085,0.981,0.171c2.091,0.491,4.224,0.619,6.4,0.448
			c0.597-0.043,1.173-0.107,1.771-0.192c2.496-0.405,4.971-1.088,7.275-2.432c7.659-4.416,11.52-12.864,10.496-21.12
			c-0.341-2.752-1.216-5.483-2.688-8.021c-13.12-22.72-34.304-38.976-59.627-45.76c-25.301-6.763-51.819-3.285-74.539,9.813
			c-22.72,13.12-38.955,34.304-45.76,59.627c-6.784,25.344-3.285,51.797,9.813,74.517c3.968,6.848,11.136,10.667,18.517,10.667
			c3.605,0,7.275-0.917,10.645-2.837c2.325-1.365,4.203-3.157,5.803-5.141c0.512-0.619,0.853-1.323,1.28-2.005
			c0.939-1.472,1.728-2.987,2.261-4.629c0.277-0.832,0.512-1.621,0.683-2.496c0.341-1.707,0.448-3.435,0.363-5.184
			c-0.043-0.789,0.021-1.536-0.107-2.325c-0.043-0.299,0.021-0.619-0.043-0.939c6.677,5.909,16.64,7.189,24.789,2.475
			c5.504-3.179,8.96-8.469,10.133-14.251l8.32,15.723c-24.149,14.144-40.235,32.32-45.333,52.928l-0.427,1.088
			c-11.733,29.611-17.685,61.205-17.685,93.931c0,125.547,89.451,227.691,199.36,227.691c109.931,0,199.36-102.144,199.36-227.691
			c0-32.64-5.931-64.149-17.579-93.675c-5.355-24.427-26.347-45.739-60.16-61.397l23.872-39.339l56.064,53.525
			c8.491,8.128,22.016,7.808,30.144-0.704C492.933,134.231,492.613,120.727,484.101,112.578z M253.082,426.69
			c-35.093,0-68.971-21.227-90.645-56.747c-6.123-10.069-2.944-23.189,7.104-29.333c10.069-6.144,23.189-2.944,29.333,7.125
			c13.845,22.72,34.112,36.288,54.208,36.288c11.797,0,21.333,9.536,21.333,21.333C274.415,417.132,264.879,426.69,253.082,426.69z
			 M392.879,199.468c-5.035,28.651-61.867,59.477-139.797,59.477c-78.272,0-135.317-31.104-139.861-59.883
			c2.261-7.957,10.624-16.747,23.957-24.789l14.656,27.712c3.84,7.232,11.221,11.371,18.88,11.371c3.371,0,6.784-0.789,9.941-2.496
			c10.432-5.483,14.4-18.389,8.896-28.821l-12.8-24.213c21.184-6.016,46.869-9.941,76.331-9.941c18.581,0,36.885,1.621,54.4,4.843
			l2.645,0.661l-29.675,48.896c-6.101,10.069-2.901,23.189,7.168,29.312c3.456,2.091,7.275,3.093,11.051,3.093
			c7.211,0,14.251-3.669,18.261-10.261l35.563-58.581C374.938,175.426,389.999,187.884,392.879,199.468z"/>
	</g>
</g>
</svg>