<?xml version="1.0" encoding="iso-8859-1"?>
<!-- Uploaded to: SVG Repo, www.svgrepo.com, Generator: SVG Repo Mixer Tools -->
<svg fill="#000000" height="800px" width="800px" version="1.1" id="Layer_1" xmlns="http://www.w3.org/2000/svg" xmlns:xlink="http://www.w3.org/1999/xlink" 
	 viewBox="0 0 512.159 512.159" xml:space="preserve">
<g>
	<g>
		<path d="M502.251,296.015c-14.635-27.925-33.429-53.504-55.552-76.416c-2.048-17.237-8.981-34.005-21.355-47.701
			c-20.309-22.421-48.405-36.949-78.421-40.917c-0.213-0.299-0.32-0.661-0.533-0.96c-11.307-15.467-28.651-24.32-47.595-24.32
			h-85.504c-18.944,0-36.288,8.853-47.595,24.32c-0.213,0.299-0.32,0.661-0.533,0.96c-30.016,3.968-58.091,18.496-78.421,40.939
			c-12.373,13.675-19.285,30.443-21.355,47.659c-22.123,22.933-40.875,48.448-55.04,75.477
			c-14.144,23.936-13.76,53.461,0.981,77.077c13.44,21.504,38.805,34.219,64.427,34.219c8.811,0,17.643-1.493,26.048-4.651
			l81.173-32.469c10.325,3.264,21.035,5.269,32,5.269c1.963,0,3.925-0.469,5.888-0.576c8.704,10.197,21.248,16.32,35.349,16.32
			c14.037,0,26.539-6.123,35.179-16.299c1.835,0.085,3.691,0.533,5.525,0.533c10.901,0,21.589-2.048,31.957-5.333l82.005,32.768
			c8.384,3.072,17.173,4.544,25.856,4.544c25.515,0,50.475-12.629,64.043-34.325C515.499,348.517,515.883,318.991,502.251,296.015z
			 M190.038,326.65c-2.283-0.96-4.416-2.112-6.549-3.307c-2.368-1.323-4.672-2.773-6.827-4.416
			c-1.216-0.896-2.539-1.685-3.691-2.667l-8.299-8.64l-45.44-47.381c-1.301-1.365-2.347-2.88-3.456-4.373
			c-0.555-0.768-1.259-1.451-1.771-2.24c-0.768-1.216-1.301-2.539-1.963-3.819c-0.597-1.195-1.323-2.325-1.813-3.563
			c-0.448-1.152-0.704-2.368-1.045-3.541c-0.448-1.493-0.981-2.944-1.259-4.459c-0.192-0.96-0.192-1.941-0.32-2.923
			c-0.213-1.813-0.448-3.648-0.448-5.504c0.043-10.496,3.712-20.992,11.221-29.269c9.856-10.901,22.485-19.008,36.373-23.637
			c0.363,2.155,0.96,4.267,1.557,6.357c0.213,0.811,0.213,1.643,0.469,2.432l46.187,145.045
			C198.443,329.935,194.198,328.357,190.038,326.65z M404.481,235.322c-0.128,0.981-0.128,1.963-0.32,2.923
			c-0.277,1.536-0.811,2.987-1.259,4.48c-0.363,1.173-0.597,2.368-1.045,3.52c-0.533,1.344-1.301,2.581-1.963,3.861
			c-0.619,1.173-1.088,2.389-1.813,3.499c-1.515,2.347-3.243,4.587-5.227,6.635l-53.376,55.659
			c-3.776,3.264-7.936,5.845-12.224,8.128c-1.237,0.64-2.453,1.301-3.712,1.877c-4.608,2.069-9.365,3.797-14.315,4.736l46.08-144.96
			c0.256-0.768,0.235-1.557,0.448-2.325c0.619-2.133,1.216-4.267,1.579-6.443c13.867,4.629,26.517,12.736,36.373,23.616
			c7.509,8.299,11.179,18.795,11.221,29.291C404.929,231.674,404.694,233.509,404.481,235.322z"/>
	</g>
</g>
</svg>