<?xml version="1.0" encoding="iso-8859-1"?>
<!-- Uploaded to: SVG Repo, www.svgrepo.com, Generator: SVG Repo Mixer Tools -->
<svg fill="#000000" height="800px" width="800px" version="1.1" id="Layer_1" xmlns="http://www.w3.org/2000/svg" xmlns:xlink="http://www.w3.org/1999/xlink" 
	 viewBox="0 0 512 512" xml:space="preserve">
<g>
	<g>
		<path d="M494.434,315.678h-30.737c-8.33-99.351-86.634-179.103-185.34-189.677c4.801-15.151-6.544-30.542-22.357-30.542
			c-15.83,0-27.153,15.407-22.357,30.542c-98.707,10.574-177.01,90.327-185.34,189.677H17.566C7.865,315.678,0,323.543,0,333.244
			c0,9.701,7.865,17.565,17.566,17.565h29.99v13.612c0,28.738,23.381,52.119,52.12,52.119h312.648
			c28.74,0,52.12-23.381,52.12-52.119v-13.612h29.99c9.701,0,17.565-7.865,17.565-17.565
			C512,323.543,504.135,315.678,494.434,315.678z M112.028,273.83c15.615-37.716,46.155-68.42,83.79-84.238
			c8.943-3.761,19.24,0.444,22.999,9.387c3.759,8.944-0.444,19.241-9.387,23c-29.17,12.261-52.841,36.057-64.942,65.29
			c-3.706,8.953-13.973,13.224-22.949,9.51C112.576,293.067,108.318,282.792,112.028,273.83z M429.313,364.421
			c0,9.367-7.621,16.988-16.989,16.988H99.676c-9.368,0-16.989-7.621-16.989-16.988v-13.612h346.626V364.421z"/>
	</g>
</g>
</svg>