<?xml version="1.0" encoding="iso-8859-1"?>
<!-- Uploaded to: SVG Repo, www.svgrepo.com, Generator: SVG Repo Mixer Tools -->
<!DOCTYPE svg PUBLIC "-//W3C//DTD SVG 1.1//EN" "http://www.w3.org/Graphics/SVG/1.1/DTD/svg11.dtd">
<svg fill="#000000" version="1.1" id="Capa_1" xmlns="http://www.w3.org/2000/svg" xmlns:xlink="http://www.w3.org/1999/xlink" 
	 width="800px" height="800px" viewBox="0 0 894.2 894.2" xml:space="preserve"
	>
<g>
	<g>
		<path d="M54.255,138.5c0,13.8,11.2,25,25,25h153.7l19.1,86.7h61.4l-28.101-127.1c-2.5-11.5-12.699-19.6-24.399-19.6h-181.7
			c-13.8,0-25,11.2-25,25V138.5z"/>
		<path d="M655.255,152c-0.4-1.9-1.3-4.4-2.7-7.1l-105.2,105.3h84.9l62.9-62.9c-2.7-1.4-5.2-2.3-7.101-2.7
			C671.555,181.2,658.755,168.4,655.255,152z"/>
		<path d="M819.755,261.9c3.8,0,7.7-2.2,9.4-6.2c33.6-80.8-22-222.9-22-222.9S723.455,0,647.955,0c-22.8,0-44.9,3-63.7,10.8
			c-7.4,3.1-8.5,13.2-1.7,17.6c5.2,3.4,10.3,7.5,15.101,12.3c11.8,11.8,19.5,25.4,22,37.4c0.8,3.9,3.899,7,7.8,7.8
			c12,2.5,25.6,10.1,37.399,22c11.801,11.8,19.5,25.4,22,37.4c0.801,3.9,3.9,7,7.801,7.8c12,2.5,25.6,10.1,37.399,22
			c11.8,11.8,19.5,25.4,22,37.4c0.8,3.9,3.9,7,7.8,7.8c12,2.5,25.601,10.1,37.4,22c4.8,4.8,8.9,9.9,12.3,15.1
			C813.455,260.5,816.555,261.9,819.755,261.9z"/>
		<path d="M172.755,280.2c-11.8,0-22.8,6-29.3,15.9c-37.4,56.8-59.2,124.9-59.2,198.101c0,144.199,84.6,268.699,206.8,326.5
			c24.4,13.6,58.5,33.3,90.2,54.199c19.4,12.801,41.7,19.301,64,19.301s44.6-6.4,64-19.301c31.6-21,65.8-40.699,90.2-54.199
			c122.2-57.801,206.8-182.301,206.8-326.5c0-73.2-21.8-141.2-59.2-198.101c-6.5-9.9-17.5-15.9-29.3-15.9H172.755L172.755,280.2z"/>
	</g>
</g>
</svg>