<?xml version='1.0' encoding='iso-8859-1'?>
<!DOCTYPE svg PUBLIC '-//W3C//DTD SVG 1.1//EN' 'http://www.w3.org/Graphics/SVG/1.1/DTD/svg11.dtd'>
<!-- Uploaded to: SVG Repo, www.svgrepo.com, Generator: SVG Repo Mixer Tools -->
<svg fill="#000000" height="800px" width="800px" version="1.1" xmlns="http://www.w3.org/2000/svg" viewBox="0 0 307.947 307.947" xmlns:xlink="http://www.w3.org/1999/xlink" enable-background="new 0 0 307.947 307.947">
  <g>
    <path d="m113.424,128.212c-0.34,1.786 0.548,3.58 2.174,4.394 1.626,0.813 3.594,0.446 4.82-0.896 9.254-10.13 18.742-24.578 13.855-37.767-7.391-19.95-14.649-28.804-11.4-43.832 0.212-0.98-0.276-1.979-1.18-2.413-0.904-0.435-1.99-0.194-2.623,0.584-6.128,7.531-14.004,20.883-11.7,37.95 2.622,19.423 8.443,29.434 6.054,41.98z"/>
    <path d="m59.591,139.212c-0.34,1.786 0.548,3.58 2.174,4.394 1.626,0.813 3.594,0.446 4.82-0.896 9.254-10.13 18.742-24.578 13.855-37.767-7.391-19.95-14.649-28.804-11.4-43.832 0.212-0.98-0.276-1.979-1.18-2.413-0.904-0.435-1.99-0.194-2.623,0.584-6.127,7.531-14.004,20.883-11.7,37.95 2.622,19.423 8.443,29.434 6.054,41.98z"/>
    <path d="m167.257,135.212c-0.34,1.786 0.548,3.58 2.174,4.394 1.626,0.813 3.594,0.446 4.82-0.896 9.254-10.13 18.742-24.578 13.855-37.767-7.391-19.95-14.649-28.804-11.4-43.832 0.212-0.98-0.276-1.979-1.18-2.413-0.904-0.435-1.99-0.194-2.623,0.584-6.128,7.531-14.004,20.883-11.7,37.95 2.622,19.423 8.443,29.434 6.054,41.98z"/>
    <path d="m288.132,174.169c-8.516,0-272.006,0-279.368,0-2.571,0-5.011,1.131-6.675,3.091-1.664,1.96-2.391,4.555-1.972,7.092 7.084,42.861 58.331,76.113 120.498,76.113 51.648,0 95.753-22.954 113.263-55.3l51.046,8.375c5.739,0.942 11.603-0.686 16.036-4.451 4.433-3.765 6.988-9.288 6.988-15.104-0.001-10.944-8.872-19.816-19.816-19.816z"/>
  </g>
</svg>