<?xml version="1.0" encoding="utf-8"?>

<!-- Uploaded to: SVG Repo, www.svgrepo.com, Generator: SVG Repo Mixer Tools -->
<svg version="1.1" id="Icons" xmlns="http://www.w3.org/2000/svg" xmlns:xlink="http://www.w3.org/1999/xlink" 
	 viewBox="0 0 32 32" xml:space="preserve">
<style type="text/css">
	.st0{fill:none;stroke:#000000;stroke-width:2;stroke-linecap:round;stroke-linejoin:round;stroke-miterlimit:10;}
</style>
<path d="M27.7,10.7c0.3-0.3,0.3-0.7,0.2-1.1C27.8,9.2,27.4,9,27,9H12.4L9,4.7l4.5-2.9c0.4-0.2,0.5-0.7,0.4-1.1C13.8,0.3,13.4,0,13,0
	H5C4.6,0,4.2,0.2,4.1,0.6l-3,7C0.9,8,1,8.5,1.4,8.8C1.5,8.9,1.8,9,2,9c0.2,0,0.4-0.1,0.5-0.2l4.8-3.1L9.8,9H5C4.6,9,4.2,9.2,4.1,9.6
	C3.9,10,4,10.4,4.3,10.7L15,22.4V30h-3c-0.6,0-1,0.4-1,1s0.4,1,1,1h8c0.6,0,1-0.4,1-1s-0.4-1-1-1h-3v-7.6L27.7,10.7z M24.7,11
	l-1.8,2h-7.4l-1.6-2H24.7z M11.4,11l1.6,2H9.1l-1.8-2H11.4z"/>
</svg>