<?xml version="1.0" encoding="iso-8859-1"?>
<!-- Uploaded to: SVG Repo, www.svgrepo.com, Generator: SVG Repo Mixer Tools -->
<svg fill="#000000" height="800px" width="800px" version="1.1" id="Layer_1" xmlns="http://www.w3.org/2000/svg" xmlns:xlink="http://www.w3.org/1999/xlink" 
	 viewBox="0 0 511.999 511.999" xml:space="preserve">
<g>
	<g>
		<path d="M255.999,0c-39.211,0-73.312,22.228-90.413,54.734c2.886-0.176,5.793-0.274,8.723-0.274c4.944,0,9.885,0.275,14.797,0.79
			c7.737,0.811,15.403,2.24,22.898,4.286c9.431,2.576,18.591,6.109,27.282,10.558c5.785,2.961,11.373,6.33,16.712,10.066
			c5.34-3.735,10.927-7.104,16.712-10.066c8.69-4.449,17.851-7.982,27.282-10.558c7.495-2.048,15.162-3.476,22.898-4.286
			c4.912-0.515,9.853-0.79,14.797-0.79c2.93,0,5.837,0.098,8.723,0.274C329.311,22.228,295.211,0,255.999,0z"/>
	</g>
</g>
<g>
	<g>
		<path d="M357.991,97.338c-6.564-1.329-13.351-2.033-20.301-2.033c-0.101,0-0.202,0.004-0.304,0.004
			c-6.957,0.022-13.751,0.743-20.319,2.097c-5.513,1.135-10.863,2.719-16.017,4.707c-18.034,6.957-33.618,18.885-45.052,34.108
			c-11.431-15.223-27.015-27.151-45.049-34.108c-5.152-1.988-10.504-3.571-16.017-4.707c-6.568-1.353-13.36-2.075-20.319-2.097
			c-0.101,0-0.201-0.004-0.304-0.004c-6.949,0-13.738,0.704-20.301,2.033c-40.009,8.102-71.606,39.666-79.755,79.657h18.367H419.38
			h18.367C429.596,137.004,398,105.44,357.991,97.338z"/>
	</g>
</g>
<g>
	<g>
		<path d="M419.38,217.839h-1.269h-20.609h-13.487h-92.652h-35.365h-35.365h-92.649h-13.487H93.888h-1.269H73.337
			c0.633,5.706,1.519,11.337,2.666,16.876c1.634,7.898,3.785,15.607,6.4,23.101c22.887,65.592,81.952,114.353,153.173,122.264
			v91.074h-44.968c-11.279,0-20.423,9.142-20.423,20.423c0,11.277,9.144,20.423,20.423,20.423h65.39h65.39
			c11.279,0,20.423-9.145,20.423-20.423c0-11.28-9.144-20.423-20.423-20.423h-44.968V380.08
			c71.222-7.91,130.288-56.673,153.173-122.264c2.615-7.494,4.767-15.203,6.4-23.101c1.146-5.537,2.033-11.168,2.666-16.876H419.38z
			"/>
	</g>
</g>
</svg>