<?xml version='1.0' encoding='iso-8859-1'?>
<!DOCTYPE svg PUBLIC '-//W3C//DTD SVG 1.1//EN' 'http://www.w3.org/Graphics/SVG/1.1/DTD/svg11.dtd'>
<!-- Uploaded to: SVG Repo, www.svgrepo.com, Generator: SVG Repo Mixer Tools -->
<svg fill="#000000" height="800px" width="800px" version="1.1" xmlns="http://www.w3.org/2000/svg" viewBox="0 0 292.138 292.138" xmlns:xlink="http://www.w3.org/1999/xlink" enable-background="new 0 0 292.138 292.138">
  <g>
    <path d="m36.967,129.963l18.78-10.938 53.737-31.298c12.317-31.314 14.15-59.266 3.773-63.674-44.225-18.785-91.541-7.021-105.683,26.274-11.17,26.296 1.706,58.148 29.393,79.636z"/>
    <path d="m289.446,34.775c-5.508-9.457-17.64-12.658-27.096-7.15l-259.478,151.127c-1.571,0.915-2.619,2.515-2.832,4.32-0.213,1.805 0.435,3.607 1.751,4.862 7.026,6.699 17.718,9.546 30.674,9.546 44.944,0 117.197-34.235 158.739-60.636 16.681-10.602 20.948-20.35 10.463-43.902l77.726-29.682c5.434-2.075 9.681-6.432 11.617-11.917 1.934-5.484 1.363-11.542-1.564-16.568z"/>
    <path d="m230.692,149.668c-9.908-6.544-34.101,12.622-54.037,42.808-19.935,30.186-28.064,59.961-18.156,66.505 40.094,26.479 88.758,23.474 108.693-6.712s3.594-76.122-36.5-102.601z"/>
  </g>
</svg>