<?xml version="1.0" encoding="iso-8859-1"?>
<!-- Uploaded to: SVG Repo, www.svgrepo.com, Generator: SVG Repo Mixer Tools -->
<svg fill="#000000" height="800px" width="800px" version="1.1" id="Layer_1" xmlns="http://www.w3.org/2000/svg" xmlns:xlink="http://www.w3.org/1999/xlink" 
	 viewBox="0 0 512 512" xml:space="preserve">
<g>
	<g>
		<path d="M173.811,404.342l-69.789-71.481c-3.729-3.82-9.861-3.856-13.635-0.081l-80.068,80.067C3.664,419.499,0,428.362,0,437.797
			c0,9.437,3.664,18.299,10.318,24.951l34.288,34.29c6.879,6.877,15.915,10.316,24.951,10.316c9.035,0,18.072-3.439,24.951-10.318
			l79.223-79.221C177.441,414.103,177.477,408.097,173.811,404.342z"/>
	</g>
</g>
<g>
	<g>
		<path d="M462.792,16.261C455.304,8.772,445.326,4.647,434.7,4.647c-10.626,0-20.603,4.124-28.092,11.614L132.999,289.87
			c-3.711,3.711-3.747,9.717-0.081,13.473l76.711,78.573l0.037-0.037l34.894,34.892c0.61,0.61,1.257,1.159,1.92,1.677
			c7.244,6.383,16.459,9.878,26.23,9.878c10.627,0,20.603-4.124,28.092-11.614l161.99-161.99
			C494.524,222.989,512,180.647,512,135.492C512,90.337,494.524,47.993,462.792,16.261z"/>
	</g>
</g>
</svg>