<?xml version="1.0" encoding="utf-8"?>

<!DOCTYPE svg PUBLIC "-//W3C//DTD SVG 1.1//EN" "http://www.w3.org/Graphics/SVG/1.1/DTD/svg11.dtd">
<!-- Uploaded to: SVG Repo, www.svgrepo.com, Generator: SVG Repo Mixer Tools -->
<svg height="800px" width="800px" version="1.1" id="_x32_" xmlns="http://www.w3.org/2000/svg" xmlns:xlink="http://www.w3.org/1999/xlink" 
	 viewBox="0 0 512 512"  xml:space="preserve">
<style type="text/css">
	.st0{fill:#000000;}
</style>
<g>
	<path class="st0" d="M341.423,180.869l-48.753-48.744c-10.403-10.412-27.29-10.412-37.712,0L133.07,254.022
		c-10.412,10.411-10.412,27.299,0,37.702l48.744,48.753c10.412,10.412,27.299,10.393,37.711,0L341.423,218.58
		C351.816,208.168,351.835,191.28,341.423,180.869z"/>
	<path class="st0" d="M238.83,75.21c-2.344-9.857-10.19-16.777-20.371-18.027L76.591,39.814c-4.568-0.564-9.301,0.066-13.784,1.724
		L21.269,0L0.945,20.324l41.537,41.537c-1.658,4.483-2.288,9.198-1.724,13.784l17.369,141.869
		c1.25,10.181,8.17,18.027,18.027,20.371c9.838,2.344,20.991-1.195,28.967-9.189l124.519-124.51
		C237.625,96.201,241.174,85.048,238.83,75.21z"/>
	<path class="st0" d="M422.858,403.488c30.162-36.581,36.767-81.232,7.374-110.605c-32.301-32.302-85.594-23.669-123.778,14.525
		c-38.194,38.194-46.826,91.486-14.525,123.778c29.374,29.384,74.024,22.788,110.605-7.374L490.731,512l20.323-20.343
		L422.858,403.488z"/>
</g>
</svg>