<?xml version="1.0" encoding="iso-8859-1"?>
<!-- Uploaded to: SVG Repo, www.svgrepo.com, Generator: SVG Repo Mixer Tools -->
<svg fill="#000000" height="800px" width="800px" version="1.1" id="Layer_1" xmlns="http://www.w3.org/2000/svg" xmlns:xlink="http://www.w3.org/1999/xlink" 
	 viewBox="0 0 512 512" xml:space="preserve">
<g>
	<g>
		<path d="M249.589,140.84h-26.094c-6.372-27.515-31.064-48.092-60.488-48.092c-29.424,0-54.117,20.576-60.489,48.092H76.469
			c-39.351,0-71.844,29.881-76.007,68.143h295.185h29.949C321.433,170.721,288.941,140.84,249.589,140.84z"/>
	</g>
</g>
<g>
	<g>
		<path d="M474.431,208.982H356.469v75.138h117.962c20.715,0,37.569-16.853,37.569-37.569
			C512,225.836,495.146,208.982,474.431,208.982z"/>
	</g>
</g>
<g>
	<g>
		<path d="M0,239.394v129.144c0,27.964,22.75,50.714,50.714,50.714h224.63c27.964,0,50.714-22.75,50.714-50.714V239.394H0z"/>
	</g>
</g>
</svg>