<?xml version='1.0' encoding='iso-8859-1'?>
<!DOCTYPE svg PUBLIC '-//W3C//DTD SVG 1.1//EN' 'http://www.w3.org/Graphics/SVG/1.1/DTD/svg11.dtd'>
<!-- Uploaded to: SVG Repo, www.svgrepo.com, Generator: SVG Repo Mixer Tools -->
<svg fill="#000000" height="800px" width="800px" version="1.1" xmlns="http://www.w3.org/2000/svg" viewBox="0 0 296.227 296.227" xmlns:xlink="http://www.w3.org/1999/xlink" enable-background="new 0 0 296.227 296.227">
  <path d="m167.363,48.003v-23.003h10.5c6.903,0 12.5-5.597 12.5-12.5s-5.596-12.5-12.5-12.5h-59.5c-6.903,0-12.5,5.597-12.5,12.5s5.597,12.5 12.5,12.5h10.5v23.003c-59.738,9.284-105.605,61.07-105.605,123.37 0,68.845 56.01,124.854 124.855,124.854s124.854-56.009 124.854-124.854c0.001-62.299-45.866-114.085-105.604-123.37zm80.199,114.323c0.209,2.319-0.567,4.619-2.137,6.339s-3.792,2.708-6.121,2.708h-82.898c-4.58,0-8.292-3.712-8.292-8.292v-82.898c0-2.33 0.981-4.553 2.702-6.124 1.721-1.571 4.024-2.343 6.345-2.134 47.855,4.317 86.083,42.545 90.401,90.401z"/>
</svg>